# Tiled2Unity generated file. Do not modify by hand.
# Wavefront file for 'map2_mesh_0022.obj'

# Vertices (Count = 372)
v -60 -141 0
v -61 -141 0
v -61 -140 0
v -60 -140 0
v -60 -142 0
v -61 -142 0
v -61 -141 0
v -60 -141 0
v -61 -142 0
v -62 -142 0
v -62 -141 0
v -61 -141 0
v -60 -143 0
v -61 -143 0
v -61 -142 0
v -60 -142 0
v -61 -143 0
v -62 -143 0
v -62 -142 0
v -61 -142 0
v -62 -143 0
v -63 -143 0
v -63 -142 0
v -62 -142 0
v -60 -144 0
v -61 -144 0
v -61 -143 0
v -60 -143 0
v -61 -144 0
v -62 -144 0
v -62 -143 0
v -61 -143 0
v -62 -144 0
v -63 -144 0
v -63 -143 0
v -62 -143 0
v -60 -145 0
v -61 -145 0
v -61 -144 0
v -60 -144 0
v -61 -145 0
v -62 -145 0
v -62 -144 0
v -61 -144 0
v -62 -145 0
v -63 -145 0
v -63 -144 0
v -62 -144 0
v -60 -146 0
v -61 -146 0
v -61 -145 0
v -60 -145 0
v -61 -146 0
v -62 -146 0
v -62 -145 0
v -61 -145 0
v -62 -146 0
v -63 -146 0
v -63 -145 0
v -62 -145 0
v -60 -147 0
v -61 -147 0
v -61 -146 0
v -60 -146 0
v -61 -147 0
v -62 -147 0
v -62 -146 0
v -61 -146 0
v -62 -147 0
v -63 -147 0
v -63 -146 0
v -62 -146 0
v -60 -148 0
v -61 -148 0
v -61 -147 0
v -60 -147 0
v -61 -148 0
v -62 -148 0
v -62 -147 0
v -61 -147 0
v -62 -148 0
v -63 -148 0
v -63 -147 0
v -62 -147 0
v -60 -149 0
v -61 -149 0
v -61 -148 0
v -60 -148 0
v -61 -149 0
v -62 -149 0
v -62 -148 0
v -61 -148 0
v -62 -149 0
v -63 -149 0
v -63 -148 0
v -62 -148 0
v -63 -149 0
v -64 -149 0
v -64 -148 0
v -63 -148 0
v -67 -149 0
v -68 -149 0
v -68 -148 0
v -67 -148 0
v -68 -149 0
v -69 -149 0
v -69 -148 0
v -68 -148 0
v -69 -149 0
v -70 -149 0
v -70 -148 0
v -69 -148 0
v -70 -149 0
v -71 -149 0
v -71 -148 0
v -70 -148 0
v -71 -149 0
v -72 -149 0
v -72 -148 0
v -71 -148 0
v -72 -149 0
v -73 -149 0
v -73 -148 0
v -72 -148 0
v -73 -149 0
v -74 -149 0
v -74 -148 0
v -73 -148 0
v -74 -149 0
v -75 -149 0
v -75 -148 0
v -74 -148 0
v -60 -150 0
v -61 -150 0
v -61 -149 0
v -60 -149 0
v -70 -150 0
v -71 -150 0
v -71 -149 0
v -70 -149 0
v -71 -150 0
v -72 -150 0
v -72 -149 0
v -71 -149 0
v -72 -150 0
v -73 -150 0
v -73 -149 0
v -72 -149 0
v -73 -150 0
v -74 -150 0
v -74 -149 0
v -73 -149 0
v -74 -150 0
v -75 -150 0
v -75 -149 0
v -74 -149 0
v -60 -151 0
v -61 -151 0
v -61 -150 0
v -60 -150 0
v -70 -151 0
v -71 -151 0
v -71 -150 0
v -70 -150 0
v -60 -152 0
v -61 -152 0
v -61 -151 0
v -60 -151 0
v -70 -152 0
v -71 -152 0
v -71 -151 0
v -70 -151 0
v -60 -153 0
v -61 -153 0
v -61 -152 0
v -60 -152 0
v -70 -153 0
v -71 -153 0
v -71 -152 0
v -70 -152 0
v -60 -154 0
v -61 -154 0
v -61 -153 0
v -60 -153 0
v -70 -154 0
v -71 -154 0
v -71 -153 0
v -70 -153 0
v -60 -155 0
v -61 -155 0
v -61 -154 0
v -60 -154 0
v -70 -155 0
v -71 -155 0
v -71 -154 0
v -70 -154 0
v -60 -156 0
v -61 -156 0
v -61 -155 0
v -60 -155 0
v -70 -156 0
v -71 -156 0
v -71 -155 0
v -70 -155 0
v -60 -157 0
v -61 -157 0
v -61 -156 0
v -60 -156 0
v -70 -157 0
v -71 -157 0
v -71 -156 0
v -70 -156 0
v -60 -158 0
v -61 -158 0
v -61 -157 0
v -60 -157 0
v -70 -158 0
v -71 -158 0
v -71 -157 0
v -70 -157 0
v -60 -159 0
v -61 -159 0
v -61 -158 0
v -60 -158 0
v -70 -159 0
v -71 -159 0
v -71 -158 0
v -70 -158 0
v -60 -160 0
v -61 -160 0
v -61 -159 0
v -60 -159 0
v -70 -160 0
v -71 -160 0
v -71 -159 0
v -70 -159 0
v -60 -161 0
v -61 -161 0
v -61 -160 0
v -60 -160 0
v -70 -161 0
v -71 -161 0
v -71 -160 0
v -70 -160 0
v -60 -162 0
v -61 -162 0
v -61 -161 0
v -60 -161 0
v -70 -162 0
v -71 -162 0
v -71 -161 0
v -70 -161 0
v -60 -163 0
v -61 -163 0
v -61 -162 0
v -60 -162 0
v -70 -163 0
v -71 -163 0
v -71 -162 0
v -70 -162 0
v -60 -164 0
v -61 -164 0
v -61 -163 0
v -60 -163 0
v -70 -164 0
v -71 -164 0
v -71 -163 0
v -70 -163 0
v -60 -165 0
v -61 -165 0
v -61 -164 0
v -60 -164 0
v -70 -165 0
v -71 -165 0
v -71 -164 0
v -70 -164 0
v -60 -166 0
v -61 -166 0
v -61 -165 0
v -60 -165 0
v -70 -166 0
v -71 -166 0
v -71 -165 0
v -70 -165 0
v -60 -167 0
v -61 -167 0
v -61 -166 0
v -60 -166 0
v -61 -167 0
v -62 -167 0
v -62 -166 0
v -61 -166 0
v -62 -167 0
v -63 -167 0
v -63 -166 0
v -62 -166 0
v -63 -167 0
v -64 -167 0
v -64 -166 0
v -63 -166 0
v -64 -167 0
v -65 -167 0
v -65 -166 0
v -64 -166 0
v -66 -167 0
v -67 -167 0
v -67 -166 0
v -66 -166 0
v -67 -167 0
v -68 -167 0
v -68 -166 0
v -67 -166 0
v -68 -167 0
v -69 -167 0
v -69 -166 0
v -68 -166 0
v -69 -167 0
v -70 -167 0
v -70 -166 0
v -69 -166 0
v -70 -167 0
v -71 -167 0
v -71 -166 0
v -70 -166 0
v -63 -174 0
v -64 -174 0
v -64 -173 0
v -63 -173 0
v -64 -174 0
v -65 -174 0
v -65 -173 0
v -64 -173 0
v -65 -174 0
v -66 -174 0
v -66 -173 0
v -65 -173 0
v -66 -174 0
v -67 -174 0
v -67 -173 0
v -66 -173 0
v -67 -174 0
v -68 -174 0
v -68 -173 0
v -67 -173 0
v -62 -175 0
v -63 -175 0
v -63 -174 0
v -62 -174 0
v -63 -175 0
v -64 -175 0
v -64 -174 0
v -63 -174 0
v -64 -175 0
v -65 -175 0
v -65 -174 0
v -64 -174 0
v -65 -175 0
v -66 -175 0
v -66 -174 0
v -65 -174 0
v -66 -175 0
v -67 -175 0
v -67 -174 0
v -66 -174 0
v -67 -175 0
v -68 -175 0
v -68 -174 0
v -67 -174 0
v -68 -175 0
v -69 -175 0
v -69 -174 0
v -68 -174 0

# Texture cooridinates (Count = 4)
vt 0 0
vt 1 0
vt 1 1
vt 0 1

# Normal
vn 0 0 -1

# Mesh description
g map2_mesh_0022

# Faces
f 1/1/1 2/2/1 3/3/1 4/4/1
f 5/1/1 6/2/1 7/3/1 8/4/1
f 9/1/1 10/2/1 11/3/1 12/4/1
f 13/1/1 14/2/1 15/3/1 16/4/1
f 17/1/1 18/2/1 19/3/1 20/4/1
f 21/1/1 22/2/1 23/3/1 24/4/1
f 25/1/1 26/2/1 27/3/1 28/4/1
f 29/1/1 30/2/1 31/3/1 32/4/1
f 33/1/1 34/2/1 35/3/1 36/4/1
f 37/1/1 38/2/1 39/3/1 40/4/1
f 41/1/1 42/2/1 43/3/1 44/4/1
f 45/1/1 46/2/1 47/3/1 48/4/1
f 49/1/1 50/2/1 51/3/1 52/4/1
f 53/1/1 54/2/1 55/3/1 56/4/1
f 57/1/1 58/2/1 59/3/1 60/4/1
f 61/1/1 62/2/1 63/3/1 64/4/1
f 65/1/1 66/2/1 67/3/1 68/4/1
f 69/1/1 70/2/1 71/3/1 72/4/1
f 73/1/1 74/2/1 75/3/1 76/4/1
f 77/1/1 78/2/1 79/3/1 80/4/1
f 81/1/1 82/2/1 83/3/1 84/4/1
f 85/1/1 86/2/1 87/3/1 88/4/1
f 89/1/1 90/2/1 91/3/1 92/4/1
f 93/1/1 94/2/1 95/3/1 96/4/1
f 97/1/1 98/2/1 99/3/1 100/4/1
f 101/1/1 102/2/1 103/3/1 104/4/1
f 105/1/1 106/2/1 107/3/1 108/4/1
f 109/1/1 110/2/1 111/3/1 112/4/1
f 113/1/1 114/2/1 115/3/1 116/4/1
f 117/1/1 118/2/1 119/3/1 120/4/1
f 121/1/1 122/2/1 123/3/1 124/4/1
f 125/1/1 126/2/1 127/3/1 128/4/1
f 129/1/1 130/2/1 131/3/1 132/4/1
f 133/1/1 134/2/1 135/3/1 136/4/1
f 137/1/1 138/2/1 139/3/1 140/4/1
f 141/1/1 142/2/1 143/3/1 144/4/1
f 145/1/1 146/2/1 147/3/1 148/4/1
f 149/1/1 150/2/1 151/3/1 152/4/1
f 153/1/1 154/2/1 155/3/1 156/4/1
f 157/1/1 158/2/1 159/3/1 160/4/1
f 161/1/1 162/2/1 163/3/1 164/4/1
f 165/1/1 166/2/1 167/3/1 168/4/1
f 169/1/1 170/2/1 171/3/1 172/4/1
f 173/1/1 174/2/1 175/3/1 176/4/1
f 177/1/1 178/2/1 179/3/1 180/4/1
f 181/1/1 182/2/1 183/3/1 184/4/1
f 185/1/1 186/2/1 187/3/1 188/4/1
f 189/1/1 190/2/1 191/3/1 192/4/1
f 193/1/1 194/2/1 195/3/1 196/4/1
f 197/1/1 198/2/1 199/3/1 200/4/1
f 201/1/1 202/2/1 203/3/1 204/4/1
f 205/1/1 206/2/1 207/3/1 208/4/1
f 209/1/1 210/2/1 211/3/1 212/4/1
f 213/1/1 214/2/1 215/3/1 216/4/1
f 217/1/1 218/2/1 219/3/1 220/4/1
f 221/1/1 222/2/1 223/3/1 224/4/1
f 225/1/1 226/2/1 227/3/1 228/4/1
f 229/1/1 230/2/1 231/3/1 232/4/1
f 233/1/1 234/2/1 235/3/1 236/4/1
f 237/1/1 238/2/1 239/3/1 240/4/1
f 241/1/1 242/2/1 243/3/1 244/4/1
f 245/1/1 246/2/1 247/3/1 248/4/1
f 249/1/1 250/2/1 251/3/1 252/4/1
f 253/1/1 254/2/1 255/3/1 256/4/1
f 257/1/1 258/2/1 259/3/1 260/4/1
f 261/1/1 262/2/1 263/3/1 264/4/1
f 265/1/1 266/2/1 267/3/1 268/4/1
f 269/1/1 270/2/1 271/3/1 272/4/1
f 273/1/1 274/2/1 275/3/1 276/4/1
f 277/1/1 278/2/1 279/3/1 280/4/1
f 281/1/1 282/2/1 283/3/1 284/4/1
f 285/1/1 286/2/1 287/3/1 288/4/1
f 289/1/1 290/2/1 291/3/1 292/4/1
f 293/1/1 294/2/1 295/3/1 296/4/1
f 297/1/1 298/2/1 299/3/1 300/4/1
f 301/1/1 302/2/1 303/3/1 304/4/1
f 305/1/1 306/2/1 307/3/1 308/4/1
f 309/1/1 310/2/1 311/3/1 312/4/1
f 313/1/1 314/2/1 315/3/1 316/4/1
f 317/1/1 318/2/1 319/3/1 320/4/1
f 321/1/1 322/2/1 323/3/1 324/4/1
f 325/1/1 326/2/1 327/3/1 328/4/1
f 329/1/1 330/2/1 331/3/1 332/4/1
f 333/1/1 334/2/1 335/3/1 336/4/1
f 337/1/1 338/2/1 339/3/1 340/4/1
f 341/1/1 342/2/1 343/3/1 344/4/1
f 345/1/1 346/2/1 347/3/1 348/4/1
f 349/1/1 350/2/1 351/3/1 352/4/1
f 353/1/1 354/2/1 355/3/1 356/4/1
f 357/1/1 358/2/1 359/3/1 360/4/1
f 361/1/1 362/2/1 363/3/1 364/4/1
f 365/1/1 366/2/1 367/3/1 368/4/1
f 369/1/1 370/2/1 371/3/1 372/4/1

