# Tiled2Unity generated file. Do not modify by hand.
# Wavefront file for 'map2_mesh_0009.obj'

# Vertices (Count = 28)
v -51 -173 0
v -52 -173 0
v -52 -172 0
v -51 -172 0
v -48 -174 0
v -49 -174 0
v -49 -173 0
v -48 -173 0
v -54 -174 0
v -55 -174 0
v -55 -173 0
v -54 -173 0
v -54 -175 0
v -55 -175 0
v -55 -174 0
v -54 -174 0
v -57 -182 0
v -58 -182 0
v -58 -181 0
v -57 -181 0
v -49 -183 0
v -50 -183 0
v -50 -182 0
v -49 -182 0
v -80 -187 0
v -81 -187 0
v -81 -186 0
v -80 -186 0

# Texture cooridinates (Count = 4)
vt 0 1
vt 0 0
vt 1 0
vt 1 1

# Normal
vn 0 0 -1

# Mesh description
g map2_mesh_0009

# Faces
f 1/1/1 2/2/1 3/3/1 4/4/1
f 5/1/1 6/2/1 7/3/1 8/4/1
f 9/1/1 10/2/1 11/3/1 12/4/1
f 13/1/1 14/2/1 15/3/1 16/4/1
f 17/2/1 18/3/1 19/4/1 20/1/1
f 21/2/1 22/3/1 23/4/1 24/1/1
f 25/2/1 26/3/1 27/4/1 28/1/1

