# Tiled2Unity generated file. Do not modify by hand.
# Wavefront file for 'map2_mesh_0060.obj'

# Vertices (Count = 16)
v -69 -158 0
v -70 -158 0
v -70 -157 0
v -69 -157 0
v -69 -165 0
v -70 -165 0
v -70 -164 0
v -69 -164 0
v -68 -166 0
v -69 -166 0
v -69 -165 0
v -68 -165 0
v -69 -166 0
v -70 -166 0
v -70 -165 0
v -69 -165 0

# Texture cooridinates (Count = 4)
vt 1 0
vt 0 0
vt 0 1
vt 1 1

# Normal
vn 0 0 -1

# Mesh description
g map2_mesh_0060

# Faces
f 1/1/1 2/2/1 3/3/1 4/4/1
f 5/1/1 6/2/1 7/3/1 8/4/1
f 9/2/1 10/1/1 11/4/1 12/3/1
f 13/1/1 14/2/1 15/3/1 16/4/1

