# Tiled2Unity generated file. Do not modify by hand.
# Wavefront file for 'map2_mesh_0043.obj'

# Vertices (Count = 40)
v -71 -185 0
v -72 -185 0
v -72 -184 0
v -71 -184 0
v -72 -185 0
v -73 -185 0
v -73 -184 0
v -72 -184 0
v -73 -185 0
v -74 -185 0
v -74 -184 0
v -73 -184 0
v -74 -185 0
v -75 -185 0
v -75 -184 0
v -74 -184 0
v -75 -185 0
v -76 -185 0
v -76 -184 0
v -75 -184 0
v -71 -189 0
v -72 -189 0
v -72 -188 0
v -71 -188 0
v -72 -189 0
v -73 -189 0
v -73 -188 0
v -72 -188 0
v -73 -189 0
v -74 -189 0
v -74 -188 0
v -73 -188 0
v -74 -189 0
v -75 -189 0
v -75 -188 0
v -74 -188 0
v -75 -189 0
v -76 -189 0
v -76 -188 0
v -75 -188 0

# Texture cooridinates (Count = 4)
vt 1 1
vt 0 1
vt 0 0
vt 1 0

# Normal
vn 0 0 -1

# Mesh description
g map2_mesh_0043

# Faces
f 1/1/1 2/2/1 3/3/1 4/4/1
f 5/1/1 6/2/1 7/3/1 8/4/1
f 9/1/1 10/2/1 11/3/1 12/4/1
f 13/1/1 14/2/1 15/3/1 16/4/1
f 17/1/1 18/2/1 19/3/1 20/4/1
f 21/3/1 22/4/1 23/1/1 24/2/1
f 25/3/1 26/4/1 27/1/1 28/2/1
f 29/3/1 30/4/1 31/1/1 32/2/1
f 33/3/1 34/4/1 35/1/1 36/2/1
f 37/3/1 38/4/1 39/1/1 40/2/1

