# Tiled2Unity generated file. Do not modify by hand.
# Wavefront file for 'map2_mesh_0033.obj'

# Vertices (Count = 20)
v -50 -173 0
v -51 -173 0
v -51 -172 0
v -50 -172 0
v -58 -175 0
v -59 -175 0
v -59 -174 0
v -58 -174 0
v -73 -186 0
v -74 -186 0
v -74 -185 0
v -73 -185 0
v -74 -186 0
v -75 -186 0
v -75 -185 0
v -74 -185 0
v -74 -188 0
v -75 -188 0
v -75 -187 0
v -74 -187 0

# Texture cooridinates (Count = 4)
vt 0 1
vt 0 0
vt 1 0
vt 1 1

# Normal
vn 0 0 -1

# Mesh description
g map2_mesh_0033

# Faces
f 1/1/1 2/2/1 3/3/1 4/4/1
f 5/2/1 6/3/1 7/4/1 8/1/1
f 9/4/1 10/1/1 11/2/1 12/3/1
f 13/4/1 14/1/1 15/2/1 16/3/1
f 17/2/1 18/3/1 19/4/1 20/1/1

