# Tiled2Unity generated file. Do not modify by hand.
# Wavefront file for 'map2_mesh_0024.obj'

# Vertices (Count = 60)
v -77 -139 0
v -78 -139 0
v -78 -138 0
v -77 -138 0
v -78 -139 0
v -79 -139 0
v -79 -138 0
v -78 -138 0
v -76 -140 0
v -77 -140 0
v -77 -139 0
v -76 -139 0
v -60 -141 0
v -61 -141 0
v -61 -140 0
v -60 -140 0
v -61 -142 0
v -62 -142 0
v -62 -141 0
v -61 -141 0
v -62 -143 0
v -63 -143 0
v -63 -142 0
v -62 -142 0
v -67 -149 0
v -68 -149 0
v -68 -148 0
v -67 -148 0
v -68 -149 0
v -69 -149 0
v -69 -148 0
v -68 -148 0
v -69 -149 0
v -70 -149 0
v -70 -148 0
v -69 -148 0
v -70 -149 0
v -71 -149 0
v -71 -148 0
v -70 -148 0
v -71 -149 0
v -72 -149 0
v -72 -148 0
v -71 -148 0
v -72 -149 0
v -73 -149 0
v -73 -148 0
v -72 -148 0
v -73 -149 0
v -74 -149 0
v -74 -148 0
v -73 -148 0
v -74 -149 0
v -75 -149 0
v -75 -148 0
v -74 -148 0
v -75 -149 0
v -76 -149 0
v -76 -148 0
v -75 -148 0

# Texture cooridinates (Count = 4)
vt 0 0
vt 1 0
vt 1 1
vt 0 1

# Normal
vn 0 0 -1

# Mesh description
g map2_mesh_0024

# Faces
f 1/1/1 2/2/1 3/3/1 4/4/1
f 5/1/1 6/2/1 7/3/1 8/4/1
f 9/1/1 10/2/1 11/3/1 12/4/1
f 13/1/1 14/2/1 15/3/1 16/4/1
f 17/1/1 18/2/1 19/3/1 20/4/1
f 21/1/1 22/2/1 23/3/1 24/4/1
f 25/1/1 26/2/1 27/3/1 28/4/1
f 29/1/1 30/2/1 31/3/1 32/4/1
f 33/1/1 34/2/1 35/3/1 36/4/1
f 37/1/1 38/2/1 39/3/1 40/4/1
f 41/1/1 42/2/1 43/3/1 44/4/1
f 45/1/1 46/2/1 47/3/1 48/4/1
f 49/1/1 50/2/1 51/3/1 52/4/1
f 53/1/1 54/2/1 55/3/1 56/4/1
f 57/1/1 58/2/1 59/3/1 60/4/1

