# Tiled2Unity generated file. Do not modify by hand.
# Wavefront file for 'map2_mesh_0029.obj'

# Vertices (Count = 28)
v -61 -153 0
v -62 -153 0
v -62 -152 0
v -61 -152 0
v -65 -153 0
v -66 -153 0
v -66 -152 0
v -65 -152 0
v -63 -155 0
v -64 -155 0
v -64 -154 0
v -63 -154 0
v -68 -155 0
v -69 -155 0
v -69 -154 0
v -68 -154 0
v -65 -159 0
v -66 -159 0
v -66 -158 0
v -65 -158 0
v -63 -162 0
v -64 -162 0
v -64 -161 0
v -63 -161 0
v -67 -162 0
v -68 -162 0
v -68 -161 0
v -67 -161 0

# Texture cooridinates (Count = 4)
vt 0 0
vt 1 0
vt 1 1
vt 0 1

# Normal
vn 0 0 -1

# Mesh description
g map2_mesh_0029

# Faces
f 1/1/1 2/2/1 3/3/1 4/4/1
f 5/1/1 6/2/1 7/3/1 8/4/1
f 9/4/1 10/1/1 11/2/1 12/3/1
f 13/1/1 14/2/1 15/3/1 16/4/1
f 17/1/1 18/2/1 19/3/1 20/4/1
f 21/1/1 22/2/1 23/3/1 24/4/1
f 25/1/1 26/2/1 27/3/1 28/4/1

