# Tiled2Unity generated file. Do not modify by hand.
# Wavefront file for 'map1_new_mesh_0014.obj'

# Vertices (Count = 16)
v -47 -89 0
v -48 -89 0
v -48 -88 0
v -47 -88 0
v -55 -90 0
v -56 -90 0
v -56 -89 0
v -55 -89 0
v -63 -90 0
v -64 -90 0
v -64 -89 0
v -63 -89 0
v -33 -96 0
v -34 -96 0
v -34 -95 0
v -33 -95 0

# Texture cooridinates (Count = 4)
vt 0 0
vt 1 0
vt 1 1
vt 0 1

# Normal
vn 0 0 -1

# Mesh description
g map1_new_mesh_0014

# Faces
f 1/1/1 2/2/1 3/3/1 4/4/1
f 5/1/1 6/2/1 7/3/1 8/4/1
f 9/1/1 10/2/1 11/3/1 12/4/1
f 13/1/1 14/2/1 15/3/1 16/4/1

