# Tiled2Unity generated file. Do not modify by hand.
# Wavefront file for 'TitleScreenArt_mesh_0006.obj'

# Vertices (Count = 16)
v -24 -11 0
v -25 -11 0
v -25 -10 0
v -24 -10 0
v -24 -12 0
v -25 -12 0
v -25 -11 0
v -24 -11 0
v -24 -13 0
v -25 -13 0
v -25 -12 0
v -24 -12 0
v -24 -14 0
v -25 -14 0
v -25 -13 0
v -24 -13 0

# Texture cooridinates (Count = 4)
vt 0 0
vt 1 0
vt 1 1
vt 0 1

# Normal
vn 0 0 -1

# Mesh description
g TitleScreenArt_mesh_0006

# Faces
f 1/1/1 2/2/1 3/3/1 4/4/1
f 5/1/1 6/2/1 7/3/1 8/4/1
f 9/1/1 10/2/1 11/3/1 12/4/1
f 13/1/1 14/2/1 15/3/1 16/4/1

