# Tiled2Unity generated file. Do not modify by hand.
# Wavefront file for 'TitleScreenArt_mesh_0018.obj'

# Vertices (Count = 960)
v 0 -16 0
v -1 -16 0
v -1 -15 0
v 0 -15 0
v -1 -16 0
v -2 -16 0
v -2 -15 0
v -1 -15 0
v -2 -16 0
v -3 -16 0
v -3 -15 0
v -2 -15 0
v -3 -16 0
v -4 -16 0
v -4 -15 0
v -3 -15 0
v -4 -16 0
v -5 -16 0
v -5 -15 0
v -4 -15 0
v -5 -16 0
v -6 -16 0
v -6 -15 0
v -5 -15 0
v -6 -16 0
v -7 -16 0
v -7 -15 0
v -6 -15 0
v -7 -16 0
v -8 -16 0
v -8 -15 0
v -7 -15 0
v -8 -16 0
v -9 -16 0
v -9 -15 0
v -8 -15 0
v -9 -16 0
v -10 -16 0
v -10 -15 0
v -9 -15 0
v -10 -16 0
v -11 -16 0
v -11 -15 0
v -10 -15 0
v -11 -16 0
v -12 -16 0
v -12 -15 0
v -11 -15 0
v -12 -16 0
v -13 -16 0
v -13 -15 0
v -12 -15 0
v -13 -16 0
v -14 -16 0
v -14 -15 0
v -13 -15 0
v -14 -16 0
v -15 -16 0
v -15 -15 0
v -14 -15 0
v -15 -16 0
v -16 -16 0
v -16 -15 0
v -15 -15 0
v -16 -16 0
v -17 -16 0
v -17 -15 0
v -16 -15 0
v -17 -16 0
v -18 -16 0
v -18 -15 0
v -17 -15 0
v -18 -16 0
v -19 -16 0
v -19 -15 0
v -18 -15 0
v -19 -16 0
v -20 -16 0
v -20 -15 0
v -19 -15 0
v -20 -16 0
v -21 -16 0
v -21 -15 0
v -20 -15 0
v -21 -16 0
v -22 -16 0
v -22 -15 0
v -21 -15 0
v -22 -16 0
v -23 -16 0
v -23 -15 0
v -22 -15 0
v -23 -16 0
v -24 -16 0
v -24 -15 0
v -23 -15 0
v -24 -16 0
v -25 -16 0
v -25 -15 0
v -24 -15 0
v -25 -16 0
v -26 -16 0
v -26 -15 0
v -25 -15 0
v -26 -16 0
v -27 -16 0
v -27 -15 0
v -26 -15 0
v -27 -16 0
v -28 -16 0
v -28 -15 0
v -27 -15 0
v -28 -16 0
v -29 -16 0
v -29 -15 0
v -28 -15 0
v -29 -16 0
v -30 -16 0
v -30 -15 0
v -29 -15 0
v 0 -17 0
v -1 -17 0
v -1 -16 0
v 0 -16 0
v -1 -17 0
v -2 -17 0
v -2 -16 0
v -1 -16 0
v -2 -17 0
v -3 -17 0
v -3 -16 0
v -2 -16 0
v -3 -17 0
v -4 -17 0
v -4 -16 0
v -3 -16 0
v -4 -17 0
v -5 -17 0
v -5 -16 0
v -4 -16 0
v -5 -17 0
v -6 -17 0
v -6 -16 0
v -5 -16 0
v -6 -17 0
v -7 -17 0
v -7 -16 0
v -6 -16 0
v -7 -17 0
v -8 -17 0
v -8 -16 0
v -7 -16 0
v -8 -17 0
v -9 -17 0
v -9 -16 0
v -8 -16 0
v -9 -17 0
v -10 -17 0
v -10 -16 0
v -9 -16 0
v -10 -17 0
v -11 -17 0
v -11 -16 0
v -10 -16 0
v -11 -17 0
v -12 -17 0
v -12 -16 0
v -11 -16 0
v -12 -17 0
v -13 -17 0
v -13 -16 0
v -12 -16 0
v -13 -17 0
v -14 -17 0
v -14 -16 0
v -13 -16 0
v -14 -17 0
v -15 -17 0
v -15 -16 0
v -14 -16 0
v -15 -17 0
v -16 -17 0
v -16 -16 0
v -15 -16 0
v -16 -17 0
v -17 -17 0
v -17 -16 0
v -16 -16 0
v -17 -17 0
v -18 -17 0
v -18 -16 0
v -17 -16 0
v -18 -17 0
v -19 -17 0
v -19 -16 0
v -18 -16 0
v -19 -17 0
v -20 -17 0
v -20 -16 0
v -19 -16 0
v -20 -17 0
v -21 -17 0
v -21 -16 0
v -20 -16 0
v -21 -17 0
v -22 -17 0
v -22 -16 0
v -21 -16 0
v -22 -17 0
v -23 -17 0
v -23 -16 0
v -22 -16 0
v -23 -17 0
v -24 -17 0
v -24 -16 0
v -23 -16 0
v -24 -17 0
v -25 -17 0
v -25 -16 0
v -24 -16 0
v -25 -17 0
v -26 -17 0
v -26 -16 0
v -25 -16 0
v -26 -17 0
v -27 -17 0
v -27 -16 0
v -26 -16 0
v -27 -17 0
v -28 -17 0
v -28 -16 0
v -27 -16 0
v -28 -17 0
v -29 -17 0
v -29 -16 0
v -28 -16 0
v -29 -17 0
v -30 -17 0
v -30 -16 0
v -29 -16 0
v 0 -18 0
v -1 -18 0
v -1 -17 0
v 0 -17 0
v -1 -18 0
v -2 -18 0
v -2 -17 0
v -1 -17 0
v -2 -18 0
v -3 -18 0
v -3 -17 0
v -2 -17 0
v -3 -18 0
v -4 -18 0
v -4 -17 0
v -3 -17 0
v -4 -18 0
v -5 -18 0
v -5 -17 0
v -4 -17 0
v -5 -18 0
v -6 -18 0
v -6 -17 0
v -5 -17 0
v -6 -18 0
v -7 -18 0
v -7 -17 0
v -6 -17 0
v -7 -18 0
v -8 -18 0
v -8 -17 0
v -7 -17 0
v -8 -18 0
v -9 -18 0
v -9 -17 0
v -8 -17 0
v -9 -18 0
v -10 -18 0
v -10 -17 0
v -9 -17 0
v -10 -18 0
v -11 -18 0
v -11 -17 0
v -10 -17 0
v -11 -18 0
v -12 -18 0
v -12 -17 0
v -11 -17 0
v -12 -18 0
v -13 -18 0
v -13 -17 0
v -12 -17 0
v -13 -18 0
v -14 -18 0
v -14 -17 0
v -13 -17 0
v -14 -18 0
v -15 -18 0
v -15 -17 0
v -14 -17 0
v -15 -18 0
v -16 -18 0
v -16 -17 0
v -15 -17 0
v -16 -18 0
v -17 -18 0
v -17 -17 0
v -16 -17 0
v -17 -18 0
v -18 -18 0
v -18 -17 0
v -17 -17 0
v -18 -18 0
v -19 -18 0
v -19 -17 0
v -18 -17 0
v -19 -18 0
v -20 -18 0
v -20 -17 0
v -19 -17 0
v -20 -18 0
v -21 -18 0
v -21 -17 0
v -20 -17 0
v -21 -18 0
v -22 -18 0
v -22 -17 0
v -21 -17 0
v -22 -18 0
v -23 -18 0
v -23 -17 0
v -22 -17 0
v -23 -18 0
v -24 -18 0
v -24 -17 0
v -23 -17 0
v -24 -18 0
v -25 -18 0
v -25 -17 0
v -24 -17 0
v -25 -18 0
v -26 -18 0
v -26 -17 0
v -25 -17 0
v -26 -18 0
v -27 -18 0
v -27 -17 0
v -26 -17 0
v -27 -18 0
v -28 -18 0
v -28 -17 0
v -27 -17 0
v -28 -18 0
v -29 -18 0
v -29 -17 0
v -28 -17 0
v -29 -18 0
v -30 -18 0
v -30 -17 0
v -29 -17 0
v 0 -19 0
v -1 -19 0
v -1 -18 0
v 0 -18 0
v -1 -19 0
v -2 -19 0
v -2 -18 0
v -1 -18 0
v -2 -19 0
v -3 -19 0
v -3 -18 0
v -2 -18 0
v -3 -19 0
v -4 -19 0
v -4 -18 0
v -3 -18 0
v -4 -19 0
v -5 -19 0
v -5 -18 0
v -4 -18 0
v -5 -19 0
v -6 -19 0
v -6 -18 0
v -5 -18 0
v -6 -19 0
v -7 -19 0
v -7 -18 0
v -6 -18 0
v -7 -19 0
v -8 -19 0
v -8 -18 0
v -7 -18 0
v -8 -19 0
v -9 -19 0
v -9 -18 0
v -8 -18 0
v -9 -19 0
v -10 -19 0
v -10 -18 0
v -9 -18 0
v -10 -19 0
v -11 -19 0
v -11 -18 0
v -10 -18 0
v -11 -19 0
v -12 -19 0
v -12 -18 0
v -11 -18 0
v -12 -19 0
v -13 -19 0
v -13 -18 0
v -12 -18 0
v -13 -19 0
v -14 -19 0
v -14 -18 0
v -13 -18 0
v -14 -19 0
v -15 -19 0
v -15 -18 0
v -14 -18 0
v -15 -19 0
v -16 -19 0
v -16 -18 0
v -15 -18 0
v -16 -19 0
v -17 -19 0
v -17 -18 0
v -16 -18 0
v -17 -19 0
v -18 -19 0
v -18 -18 0
v -17 -18 0
v -18 -19 0
v -19 -19 0
v -19 -18 0
v -18 -18 0
v -19 -19 0
v -20 -19 0
v -20 -18 0
v -19 -18 0
v -20 -19 0
v -21 -19 0
v -21 -18 0
v -20 -18 0
v -21 -19 0
v -22 -19 0
v -22 -18 0
v -21 -18 0
v -22 -19 0
v -23 -19 0
v -23 -18 0
v -22 -18 0
v -23 -19 0
v -24 -19 0
v -24 -18 0
v -23 -18 0
v -24 -19 0
v -25 -19 0
v -25 -18 0
v -24 -18 0
v -25 -19 0
v -26 -19 0
v -26 -18 0
v -25 -18 0
v -26 -19 0
v -27 -19 0
v -27 -18 0
v -26 -18 0
v -27 -19 0
v -28 -19 0
v -28 -18 0
v -27 -18 0
v -28 -19 0
v -29 -19 0
v -29 -18 0
v -28 -18 0
v -29 -19 0
v -30 -19 0
v -30 -18 0
v -29 -18 0
v 0 -20 0
v -1 -20 0
v -1 -19 0
v 0 -19 0
v -1 -20 0
v -2 -20 0
v -2 -19 0
v -1 -19 0
v -2 -20 0
v -3 -20 0
v -3 -19 0
v -2 -19 0
v -3 -20 0
v -4 -20 0
v -4 -19 0
v -3 -19 0
v -4 -20 0
v -5 -20 0
v -5 -19 0
v -4 -19 0
v -5 -20 0
v -6 -20 0
v -6 -19 0
v -5 -19 0
v -6 -20 0
v -7 -20 0
v -7 -19 0
v -6 -19 0
v -7 -20 0
v -8 -20 0
v -8 -19 0
v -7 -19 0
v -8 -20 0
v -9 -20 0
v -9 -19 0
v -8 -19 0
v -9 -20 0
v -10 -20 0
v -10 -19 0
v -9 -19 0
v -10 -20 0
v -11 -20 0
v -11 -19 0
v -10 -19 0
v -11 -20 0
v -12 -20 0
v -12 -19 0
v -11 -19 0
v -12 -20 0
v -13 -20 0
v -13 -19 0
v -12 -19 0
v -13 -20 0
v -14 -20 0
v -14 -19 0
v -13 -19 0
v -14 -20 0
v -15 -20 0
v -15 -19 0
v -14 -19 0
v -15 -20 0
v -16 -20 0
v -16 -19 0
v -15 -19 0
v -16 -20 0
v -17 -20 0
v -17 -19 0
v -16 -19 0
v -17 -20 0
v -18 -20 0
v -18 -19 0
v -17 -19 0
v -18 -20 0
v -19 -20 0
v -19 -19 0
v -18 -19 0
v -19 -20 0
v -20 -20 0
v -20 -19 0
v -19 -19 0
v -20 -20 0
v -21 -20 0
v -21 -19 0
v -20 -19 0
v -21 -20 0
v -22 -20 0
v -22 -19 0
v -21 -19 0
v -22 -20 0
v -23 -20 0
v -23 -19 0
v -22 -19 0
v -23 -20 0
v -24 -20 0
v -24 -19 0
v -23 -19 0
v -24 -20 0
v -25 -20 0
v -25 -19 0
v -24 -19 0
v -25 -20 0
v -26 -20 0
v -26 -19 0
v -25 -19 0
v -26 -20 0
v -27 -20 0
v -27 -19 0
v -26 -19 0
v -27 -20 0
v -28 -20 0
v -28 -19 0
v -27 -19 0
v -28 -20 0
v -29 -20 0
v -29 -19 0
v -28 -19 0
v -29 -20 0
v -30 -20 0
v -30 -19 0
v -29 -19 0
v 0 -21 0
v -1 -21 0
v -1 -20 0
v 0 -20 0
v -1 -21 0
v -2 -21 0
v -2 -20 0
v -1 -20 0
v -2 -21 0
v -3 -21 0
v -3 -20 0
v -2 -20 0
v -3 -21 0
v -4 -21 0
v -4 -20 0
v -3 -20 0
v -4 -21 0
v -5 -21 0
v -5 -20 0
v -4 -20 0
v -5 -21 0
v -6 -21 0
v -6 -20 0
v -5 -20 0
v -6 -21 0
v -7 -21 0
v -7 -20 0
v -6 -20 0
v -7 -21 0
v -8 -21 0
v -8 -20 0
v -7 -20 0
v -8 -21 0
v -9 -21 0
v -9 -20 0
v -8 -20 0
v -9 -21 0
v -10 -21 0
v -10 -20 0
v -9 -20 0
v -10 -21 0
v -11 -21 0
v -11 -20 0
v -10 -20 0
v -11 -21 0
v -12 -21 0
v -12 -20 0
v -11 -20 0
v -12 -21 0
v -13 -21 0
v -13 -20 0
v -12 -20 0
v -13 -21 0
v -14 -21 0
v -14 -20 0
v -13 -20 0
v -14 -21 0
v -15 -21 0
v -15 -20 0
v -14 -20 0
v -15 -21 0
v -16 -21 0
v -16 -20 0
v -15 -20 0
v -16 -21 0
v -17 -21 0
v -17 -20 0
v -16 -20 0
v -17 -21 0
v -18 -21 0
v -18 -20 0
v -17 -20 0
v -18 -21 0
v -19 -21 0
v -19 -20 0
v -18 -20 0
v -19 -21 0
v -20 -21 0
v -20 -20 0
v -19 -20 0
v -20 -21 0
v -21 -21 0
v -21 -20 0
v -20 -20 0
v -21 -21 0
v -22 -21 0
v -22 -20 0
v -21 -20 0
v -22 -21 0
v -23 -21 0
v -23 -20 0
v -22 -20 0
v -23 -21 0
v -24 -21 0
v -24 -20 0
v -23 -20 0
v -24 -21 0
v -25 -21 0
v -25 -20 0
v -24 -20 0
v -25 -21 0
v -26 -21 0
v -26 -20 0
v -25 -20 0
v -26 -21 0
v -27 -21 0
v -27 -20 0
v -26 -20 0
v -27 -21 0
v -28 -21 0
v -28 -20 0
v -27 -20 0
v -28 -21 0
v -29 -21 0
v -29 -20 0
v -28 -20 0
v -29 -21 0
v -30 -21 0
v -30 -20 0
v -29 -20 0
v 0 -22 0
v -1 -22 0
v -1 -21 0
v 0 -21 0
v -1 -22 0
v -2 -22 0
v -2 -21 0
v -1 -21 0
v -2 -22 0
v -3 -22 0
v -3 -21 0
v -2 -21 0
v -3 -22 0
v -4 -22 0
v -4 -21 0
v -3 -21 0
v -4 -22 0
v -5 -22 0
v -5 -21 0
v -4 -21 0
v -5 -22 0
v -6 -22 0
v -6 -21 0
v -5 -21 0
v -6 -22 0
v -7 -22 0
v -7 -21 0
v -6 -21 0
v -7 -22 0
v -8 -22 0
v -8 -21 0
v -7 -21 0
v -8 -22 0
v -9 -22 0
v -9 -21 0
v -8 -21 0
v -9 -22 0
v -10 -22 0
v -10 -21 0
v -9 -21 0
v -10 -22 0
v -11 -22 0
v -11 -21 0
v -10 -21 0
v -11 -22 0
v -12 -22 0
v -12 -21 0
v -11 -21 0
v -12 -22 0
v -13 -22 0
v -13 -21 0
v -12 -21 0
v -13 -22 0
v -14 -22 0
v -14 -21 0
v -13 -21 0
v -14 -22 0
v -15 -22 0
v -15 -21 0
v -14 -21 0
v -15 -22 0
v -16 -22 0
v -16 -21 0
v -15 -21 0
v -16 -22 0
v -17 -22 0
v -17 -21 0
v -16 -21 0
v -17 -22 0
v -18 -22 0
v -18 -21 0
v -17 -21 0
v -18 -22 0
v -19 -22 0
v -19 -21 0
v -18 -21 0
v -19 -22 0
v -20 -22 0
v -20 -21 0
v -19 -21 0
v -20 -22 0
v -21 -22 0
v -21 -21 0
v -20 -21 0
v -21 -22 0
v -22 -22 0
v -22 -21 0
v -21 -21 0
v -22 -22 0
v -23 -22 0
v -23 -21 0
v -22 -21 0
v -23 -22 0
v -24 -22 0
v -24 -21 0
v -23 -21 0
v -24 -22 0
v -25 -22 0
v -25 -21 0
v -24 -21 0
v -25 -22 0
v -26 -22 0
v -26 -21 0
v -25 -21 0
v -26 -22 0
v -27 -22 0
v -27 -21 0
v -26 -21 0
v -27 -22 0
v -28 -22 0
v -28 -21 0
v -27 -21 0
v -28 -22 0
v -29 -22 0
v -29 -21 0
v -28 -21 0
v -29 -22 0
v -30 -22 0
v -30 -21 0
v -29 -21 0
v 0 -23 0
v -1 -23 0
v -1 -22 0
v 0 -22 0
v -1 -23 0
v -2 -23 0
v -2 -22 0
v -1 -22 0
v -2 -23 0
v -3 -23 0
v -3 -22 0
v -2 -22 0
v -3 -23 0
v -4 -23 0
v -4 -22 0
v -3 -22 0
v -4 -23 0
v -5 -23 0
v -5 -22 0
v -4 -22 0
v -5 -23 0
v -6 -23 0
v -6 -22 0
v -5 -22 0
v -6 -23 0
v -7 -23 0
v -7 -22 0
v -6 -22 0
v -7 -23 0
v -8 -23 0
v -8 -22 0
v -7 -22 0
v -8 -23 0
v -9 -23 0
v -9 -22 0
v -8 -22 0
v -9 -23 0
v -10 -23 0
v -10 -22 0
v -9 -22 0
v -10 -23 0
v -11 -23 0
v -11 -22 0
v -10 -22 0
v -11 -23 0
v -12 -23 0
v -12 -22 0
v -11 -22 0
v -12 -23 0
v -13 -23 0
v -13 -22 0
v -12 -22 0
v -13 -23 0
v -14 -23 0
v -14 -22 0
v -13 -22 0
v -14 -23 0
v -15 -23 0
v -15 -22 0
v -14 -22 0
v -15 -23 0
v -16 -23 0
v -16 -22 0
v -15 -22 0
v -16 -23 0
v -17 -23 0
v -17 -22 0
v -16 -22 0
v -17 -23 0
v -18 -23 0
v -18 -22 0
v -17 -22 0
v -18 -23 0
v -19 -23 0
v -19 -22 0
v -18 -22 0
v -19 -23 0
v -20 -23 0
v -20 -22 0
v -19 -22 0
v -20 -23 0
v -21 -23 0
v -21 -22 0
v -20 -22 0
v -21 -23 0
v -22 -23 0
v -22 -22 0
v -21 -22 0
v -22 -23 0
v -23 -23 0
v -23 -22 0
v -22 -22 0
v -23 -23 0
v -24 -23 0
v -24 -22 0
v -23 -22 0
v -24 -23 0
v -25 -23 0
v -25 -22 0
v -24 -22 0
v -25 -23 0
v -26 -23 0
v -26 -22 0
v -25 -22 0
v -26 -23 0
v -27 -23 0
v -27 -22 0
v -26 -22 0
v -27 -23 0
v -28 -23 0
v -28 -22 0
v -27 -22 0
v -28 -23 0
v -29 -23 0
v -29 -22 0
v -28 -22 0
v -29 -23 0
v -30 -23 0
v -30 -22 0
v -29 -22 0

# Texture cooridinates (Count = 16)
vt 0.4726477 0.3098291
vt 0.5492342 0.3098291
vt 0.5492342 0.3846154
vt 0.4726477 0.3846154
vt 0.5514223 0.3098291
vt 0.6280087 0.3098291
vt 0.6280087 0.3846154
vt 0.5514223 0.3846154
vt 0.5514223 0.6944444
vt 0.6280087 0.6944444
vt 0.6280087 0.7692308
vt 0.5514223 0.7692308
vt 0.6301969 0.002136767
vt 0.7067834 0.002136767
vt 0.7067834 0.07692307
vt 0.6301969 0.07692307

# Normal
vn 0 0 -1

# Mesh description
g TitleScreenArt_mesh_0018

# Faces
f 1/1/1 2/2/1 3/3/1 4/4/1
f 5/1/1 6/2/1 7/3/1 8/4/1
f 9/1/1 10/2/1 11/3/1 12/4/1
f 13/1/1 14/2/1 15/3/1 16/4/1
f 17/1/1 18/2/1 19/3/1 20/4/1
f 21/1/1 22/2/1 23/3/1 24/4/1
f 25/1/1 26/2/1 27/3/1 28/4/1
f 29/1/1 30/2/1 31/3/1 32/4/1
f 33/1/1 34/2/1 35/3/1 36/4/1
f 37/1/1 38/2/1 39/3/1 40/4/1
f 41/5/1 42/6/1 43/7/1 44/8/1
f 45/5/1 46/6/1 47/7/1 48/8/1
f 49/5/1 50/6/1 51/7/1 52/8/1
f 53/5/1 54/6/1 55/7/1 56/8/1
f 57/5/1 58/6/1 59/7/1 60/8/1
f 61/5/1 62/6/1 63/7/1 64/8/1
f 65/5/1 66/6/1 67/7/1 68/8/1
f 69/5/1 70/6/1 71/7/1 72/8/1
f 73/5/1 74/6/1 75/7/1 76/8/1
f 77/5/1 78/6/1 79/7/1 80/8/1
f 81/5/1 82/6/1 83/7/1 84/8/1
f 85/5/1 86/6/1 87/7/1 88/8/1
f 89/5/1 90/6/1 91/7/1 92/8/1
f 93/5/1 94/6/1 95/7/1 96/8/1
f 97/5/1 98/6/1 99/7/1 100/8/1
f 101/5/1 102/6/1 103/7/1 104/8/1
f 105/5/1 106/6/1 107/7/1 108/8/1
f 109/5/1 110/6/1 111/7/1 112/8/1
f 113/5/1 114/6/1 115/7/1 116/8/1
f 117/5/1 118/6/1 119/7/1 120/8/1
f 121/9/1 122/10/1 123/11/1 124/12/1
f 125/9/1 126/10/1 127/11/1 128/12/1
f 129/9/1 130/10/1 131/11/1 132/12/1
f 133/9/1 134/10/1 135/11/1 136/12/1
f 137/9/1 138/10/1 139/11/1 140/12/1
f 141/9/1 142/10/1 143/11/1 144/12/1
f 145/9/1 146/10/1 147/11/1 148/12/1
f 149/9/1 150/10/1 151/11/1 152/12/1
f 153/9/1 154/10/1 155/11/1 156/12/1
f 157/9/1 158/10/1 159/11/1 160/12/1
f 161/13/1 162/14/1 163/15/1 164/16/1
f 165/13/1 166/14/1 167/15/1 168/16/1
f 169/13/1 170/14/1 171/15/1 172/16/1
f 173/13/1 174/14/1 175/15/1 176/16/1
f 177/13/1 178/14/1 179/15/1 180/16/1
f 181/13/1 182/14/1 183/15/1 184/16/1
f 185/13/1 186/14/1 187/15/1 188/16/1
f 189/13/1 190/14/1 191/15/1 192/16/1
f 193/13/1 194/14/1 195/15/1 196/16/1
f 197/13/1 198/14/1 199/15/1 200/16/1
f 201/13/1 202/14/1 203/15/1 204/16/1
f 205/13/1 206/14/1 207/15/1 208/16/1
f 209/13/1 210/14/1 211/15/1 212/16/1
f 213/13/1 214/14/1 215/15/1 216/16/1
f 217/13/1 218/14/1 219/15/1 220/16/1
f 221/13/1 222/14/1 223/15/1 224/16/1
f 225/13/1 226/14/1 227/15/1 228/16/1
f 229/13/1 230/14/1 231/15/1 232/16/1
f 233/13/1 234/14/1 235/15/1 236/16/1
f 237/13/1 238/14/1 239/15/1 240/16/1
f 241/9/1 242/10/1 243/11/1 244/12/1
f 245/9/1 246/10/1 247/11/1 248/12/1
f 249/9/1 250/10/1 251/11/1 252/12/1
f 253/9/1 254/10/1 255/11/1 256/12/1
f 257/9/1 258/10/1 259/11/1 260/12/1
f 261/9/1 262/10/1 263/11/1 264/12/1
f 265/9/1 266/10/1 267/11/1 268/12/1
f 269/9/1 270/10/1 271/11/1 272/12/1
f 273/9/1 274/10/1 275/11/1 276/12/1
f 277/9/1 278/10/1 279/11/1 280/12/1
f 281/13/1 282/14/1 283/15/1 284/16/1
f 285/13/1 286/14/1 287/15/1 288/16/1
f 289/13/1 290/14/1 291/15/1 292/16/1
f 293/13/1 294/14/1 295/15/1 296/16/1
f 297/13/1 298/14/1 299/15/1 300/16/1
f 301/13/1 302/14/1 303/15/1 304/16/1
f 305/13/1 306/14/1 307/15/1 308/16/1
f 309/13/1 310/14/1 311/15/1 312/16/1
f 313/13/1 314/14/1 315/15/1 316/16/1
f 317/13/1 318/14/1 319/15/1 320/16/1
f 321/13/1 322/14/1 323/15/1 324/16/1
f 325/13/1 326/14/1 327/15/1 328/16/1
f 329/13/1 330/14/1 331/15/1 332/16/1
f 333/13/1 334/14/1 335/15/1 336/16/1
f 337/13/1 338/14/1 339/15/1 340/16/1
f 341/13/1 342/14/1 343/15/1 344/16/1
f 345/13/1 346/14/1 347/15/1 348/16/1
f 349/13/1 350/14/1 351/15/1 352/16/1
f 353/13/1 354/14/1 355/15/1 356/16/1
f 357/13/1 358/14/1 359/15/1 360/16/1
f 361/9/1 362/10/1 363/11/1 364/12/1
f 365/9/1 366/10/1 367/11/1 368/12/1
f 369/9/1 370/10/1 371/11/1 372/12/1
f 373/9/1 374/10/1 375/11/1 376/12/1
f 377/9/1 378/10/1 379/11/1 380/12/1
f 381/9/1 382/10/1 383/11/1 384/12/1
f 385/9/1 386/10/1 387/11/1 388/12/1
f 389/9/1 390/10/1 391/11/1 392/12/1
f 393/9/1 394/10/1 395/11/1 396/12/1
f 397/9/1 398/10/1 399/11/1 400/12/1
f 401/13/1 402/14/1 403/15/1 404/16/1
f 405/13/1 406/14/1 407/15/1 408/16/1
f 409/13/1 410/14/1 411/15/1 412/16/1
f 413/13/1 414/14/1 415/15/1 416/16/1
f 417/13/1 418/14/1 419/15/1 420/16/1
f 421/13/1 422/14/1 423/15/1 424/16/1
f 425/13/1 426/14/1 427/15/1 428/16/1
f 429/13/1 430/14/1 431/15/1 432/16/1
f 433/13/1 434/14/1 435/15/1 436/16/1
f 437/13/1 438/14/1 439/15/1 440/16/1
f 441/13/1 442/14/1 443/15/1 444/16/1
f 445/13/1 446/14/1 447/15/1 448/16/1
f 449/13/1 450/14/1 451/15/1 452/16/1
f 453/13/1 454/14/1 455/15/1 456/16/1
f 457/13/1 458/14/1 459/15/1 460/16/1
f 461/13/1 462/14/1 463/15/1 464/16/1
f 465/13/1 466/14/1 467/15/1 468/16/1
f 469/13/1 470/14/1 471/15/1 472/16/1
f 473/13/1 474/14/1 475/15/1 476/16/1
f 477/13/1 478/14/1 479/15/1 480/16/1
f 481/9/1 482/10/1 483/11/1 484/12/1
f 485/9/1 486/10/1 487/11/1 488/12/1
f 489/9/1 490/10/1 491/11/1 492/12/1
f 493/9/1 494/10/1 495/11/1 496/12/1
f 497/9/1 498/10/1 499/11/1 500/12/1
f 501/9/1 502/10/1 503/11/1 504/12/1
f 505/9/1 506/10/1 507/11/1 508/12/1
f 509/9/1 510/10/1 511/11/1 512/12/1
f 513/9/1 514/10/1 515/11/1 516/12/1
f 517/9/1 518/10/1 519/11/1 520/12/1
f 521/13/1 522/14/1 523/15/1 524/16/1
f 525/13/1 526/14/1 527/15/1 528/16/1
f 529/13/1 530/14/1 531/15/1 532/16/1
f 533/13/1 534/14/1 535/15/1 536/16/1
f 537/13/1 538/14/1 539/15/1 540/16/1
f 541/13/1 542/14/1 543/15/1 544/16/1
f 545/13/1 546/14/1 547/15/1 548/16/1
f 549/13/1 550/14/1 551/15/1 552/16/1
f 553/13/1 554/14/1 555/15/1 556/16/1
f 557/13/1 558/14/1 559/15/1 560/16/1
f 561/13/1 562/14/1 563/15/1 564/16/1
f 565/13/1 566/14/1 567/15/1 568/16/1
f 569/13/1 570/14/1 571/15/1 572/16/1
f 573/13/1 574/14/1 575/15/1 576/16/1
f 577/13/1 578/14/1 579/15/1 580/16/1
f 581/13/1 582/14/1 583/15/1 584/16/1
f 585/13/1 586/14/1 587/15/1 588/16/1
f 589/13/1 590/14/1 591/15/1 592/16/1
f 593/13/1 594/14/1 595/15/1 596/16/1
f 597/13/1 598/14/1 599/15/1 600/16/1
f 601/9/1 602/10/1 603/11/1 604/12/1
f 605/9/1 606/10/1 607/11/1 608/12/1
f 609/9/1 610/10/1 611/11/1 612/12/1
f 613/9/1 614/10/1 615/11/1 616/12/1
f 617/9/1 618/10/1 619/11/1 620/12/1
f 621/9/1 622/10/1 623/11/1 624/12/1
f 625/9/1 626/10/1 627/11/1 628/12/1
f 629/9/1 630/10/1 631/11/1 632/12/1
f 633/9/1 634/10/1 635/11/1 636/12/1
f 637/9/1 638/10/1 639/11/1 640/12/1
f 641/13/1 642/14/1 643/15/1 644/16/1
f 645/13/1 646/14/1 647/15/1 648/16/1
f 649/13/1 650/14/1 651/15/1 652/16/1
f 653/13/1 654/14/1 655/15/1 656/16/1
f 657/13/1 658/14/1 659/15/1 660/16/1
f 661/13/1 662/14/1 663/15/1 664/16/1
f 665/13/1 666/14/1 667/15/1 668/16/1
f 669/13/1 670/14/1 671/15/1 672/16/1
f 673/13/1 674/14/1 675/15/1 676/16/1
f 677/13/1 678/14/1 679/15/1 680/16/1
f 681/13/1 682/14/1 683/15/1 684/16/1
f 685/13/1 686/14/1 687/15/1 688/16/1
f 689/13/1 690/14/1 691/15/1 692/16/1
f 693/13/1 694/14/1 695/15/1 696/16/1
f 697/13/1 698/14/1 699/15/1 700/16/1
f 701/13/1 702/14/1 703/15/1 704/16/1
f 705/13/1 706/14/1 707/15/1 708/16/1
f 709/13/1 710/14/1 711/15/1 712/16/1
f 713/13/1 714/14/1 715/15/1 716/16/1
f 717/13/1 718/14/1 719/15/1 720/16/1
f 721/9/1 722/10/1 723/11/1 724/12/1
f 725/9/1 726/10/1 727/11/1 728/12/1
f 729/9/1 730/10/1 731/11/1 732/12/1
f 733/9/1 734/10/1 735/11/1 736/12/1
f 737/9/1 738/10/1 739/11/1 740/12/1
f 741/9/1 742/10/1 743/11/1 744/12/1
f 745/9/1 746/10/1 747/11/1 748/12/1
f 749/9/1 750/10/1 751/11/1 752/12/1
f 753/9/1 754/10/1 755/11/1 756/12/1
f 757/9/1 758/10/1 759/11/1 760/12/1
f 761/13/1 762/14/1 763/15/1 764/16/1
f 765/13/1 766/14/1 767/15/1 768/16/1
f 769/13/1 770/14/1 771/15/1 772/16/1
f 773/13/1 774/14/1 775/15/1 776/16/1
f 777/13/1 778/14/1 779/15/1 780/16/1
f 781/13/1 782/14/1 783/15/1 784/16/1
f 785/13/1 786/14/1 787/15/1 788/16/1
f 789/13/1 790/14/1 791/15/1 792/16/1
f 793/13/1 794/14/1 795/15/1 796/16/1
f 797/13/1 798/14/1 799/15/1 800/16/1
f 801/13/1 802/14/1 803/15/1 804/16/1
f 805/13/1 806/14/1 807/15/1 808/16/1
f 809/13/1 810/14/1 811/15/1 812/16/1
f 813/13/1 814/14/1 815/15/1 816/16/1
f 817/13/1 818/14/1 819/15/1 820/16/1
f 821/13/1 822/14/1 823/15/1 824/16/1
f 825/13/1 826/14/1 827/15/1 828/16/1
f 829/13/1 830/14/1 831/15/1 832/16/1
f 833/13/1 834/14/1 835/15/1 836/16/1
f 837/13/1 838/14/1 839/15/1 840/16/1
f 841/9/1 842/10/1 843/11/1 844/12/1
f 845/9/1 846/10/1 847/11/1 848/12/1
f 849/9/1 850/10/1 851/11/1 852/12/1
f 853/9/1 854/10/1 855/11/1 856/12/1
f 857/9/1 858/10/1 859/11/1 860/12/1
f 861/9/1 862/10/1 863/11/1 864/12/1
f 865/9/1 866/10/1 867/11/1 868/12/1
f 869/9/1 870/10/1 871/11/1 872/12/1
f 873/9/1 874/10/1 875/11/1 876/12/1
f 877/9/1 878/10/1 879/11/1 880/12/1
f 881/13/1 882/14/1 883/15/1 884/16/1
f 885/13/1 886/14/1 887/15/1 888/16/1
f 889/13/1 890/14/1 891/15/1 892/16/1
f 893/13/1 894/14/1 895/15/1 896/16/1
f 897/13/1 898/14/1 899/15/1 900/16/1
f 901/13/1 902/14/1 903/15/1 904/16/1
f 905/13/1 906/14/1 907/15/1 908/16/1
f 909/13/1 910/14/1 911/15/1 912/16/1
f 913/13/1 914/14/1 915/15/1 916/16/1
f 917/13/1 918/14/1 919/15/1 920/16/1
f 921/13/1 922/14/1 923/15/1 924/16/1
f 925/13/1 926/14/1 927/15/1 928/16/1
f 929/13/1 930/14/1 931/15/1 932/16/1
f 933/13/1 934/14/1 935/15/1 936/16/1
f 937/13/1 938/14/1 939/15/1 940/16/1
f 941/13/1 942/14/1 943/15/1 944/16/1
f 945/13/1 946/14/1 947/15/1 948/16/1
f 949/13/1 950/14/1 951/15/1 952/16/1
f 953/13/1 954/14/1 955/15/1 956/16/1
f 957/13/1 958/14/1 959/15/1 960/16/1

