# Tiled2Unity generated file. Do not modify by hand.
# Wavefront file for 'map3_mesh_0028.obj'

# Vertices (Count = 380)
v -69 -176 0
v -70 -176 0
v -70 -175 0
v -69 -175 0
v -75 -176 0
v -76 -176 0
v -76 -175 0
v -75 -175 0
v -69 -177 0
v -70 -177 0
v -70 -176 0
v -69 -176 0
v -75 -177 0
v -76 -177 0
v -76 -176 0
v -75 -176 0
v -69 -178 0
v -70 -178 0
v -70 -177 0
v -69 -177 0
v -75 -178 0
v -76 -178 0
v -76 -177 0
v -75 -177 0
v -69 -179 0
v -70 -179 0
v -70 -178 0
v -69 -178 0
v -75 -179 0
v -76 -179 0
v -76 -178 0
v -75 -178 0
v -69 -180 0
v -70 -180 0
v -70 -179 0
v -69 -179 0
v -73 -180 0
v -74 -180 0
v -74 -179 0
v -73 -179 0
v -74 -180 0
v -75 -180 0
v -75 -179 0
v -74 -179 0
v -75 -180 0
v -76 -180 0
v -76 -179 0
v -75 -179 0
v -69 -181 0
v -70 -181 0
v -70 -180 0
v -69 -180 0
v -75 -181 0
v -76 -181 0
v -76 -180 0
v -75 -180 0
v -69 -182 0
v -70 -182 0
v -70 -181 0
v -69 -181 0
v -75 -182 0
v -76 -182 0
v -76 -181 0
v -75 -181 0
v -69 -183 0
v -70 -183 0
v -70 -182 0
v -69 -182 0
v -75 -183 0
v -76 -183 0
v -76 -182 0
v -75 -182 0
v -69 -184 0
v -70 -184 0
v -70 -183 0
v -69 -183 0
v -75 -184 0
v -76 -184 0
v -76 -183 0
v -75 -183 0
v -10 -185 0
v -11 -185 0
v -11 -184 0
v -10 -184 0
v -11 -185 0
v -12 -185 0
v -12 -184 0
v -11 -184 0
v -12 -185 0
v -13 -185 0
v -13 -184 0
v -12 -184 0
v -13 -185 0
v -14 -185 0
v -14 -184 0
v -13 -184 0
v -15 -185 0
v -16 -185 0
v -16 -184 0
v -15 -184 0
v -16 -185 0
v -17 -185 0
v -17 -184 0
v -16 -184 0
v -17 -185 0
v -18 -185 0
v -18 -184 0
v -17 -184 0
v -18 -185 0
v -19 -185 0
v -19 -184 0
v -18 -184 0
v -19 -185 0
v -20 -185 0
v -20 -184 0
v -19 -184 0
v -20 -185 0
v -21 -185 0
v -21 -184 0
v -20 -184 0
v -21 -185 0
v -22 -185 0
v -22 -184 0
v -21 -184 0
v -22 -185 0
v -23 -185 0
v -23 -184 0
v -22 -184 0
v -23 -185 0
v -24 -185 0
v -24 -184 0
v -23 -184 0
v -24 -185 0
v -25 -185 0
v -25 -184 0
v -24 -184 0
v -25 -185 0
v -26 -185 0
v -26 -184 0
v -25 -184 0
v -26 -185 0
v -27 -185 0
v -27 -184 0
v -26 -184 0
v -27 -185 0
v -28 -185 0
v -28 -184 0
v -27 -184 0
v -28 -185 0
v -29 -185 0
v -29 -184 0
v -28 -184 0
v -30 -185 0
v -31 -185 0
v -31 -184 0
v -30 -184 0
v -31 -185 0
v -32 -185 0
v -32 -184 0
v -31 -184 0
v -32 -185 0
v -33 -185 0
v -33 -184 0
v -32 -184 0
v -33 -185 0
v -34 -185 0
v -34 -184 0
v -33 -184 0
v -34 -185 0
v -35 -185 0
v -35 -184 0
v -34 -184 0
v -35 -185 0
v -36 -185 0
v -36 -184 0
v -35 -184 0
v -36 -185 0
v -37 -185 0
v -37 -184 0
v -36 -184 0
v -37 -185 0
v -38 -185 0
v -38 -184 0
v -37 -184 0
v -38 -185 0
v -39 -185 0
v -39 -184 0
v -38 -184 0
v -39 -185 0
v -40 -185 0
v -40 -184 0
v -39 -184 0
v -40 -185 0
v -41 -185 0
v -41 -184 0
v -40 -184 0
v -41 -185 0
v -42 -185 0
v -42 -184 0
v -41 -184 0
v -42 -185 0
v -43 -185 0
v -43 -184 0
v -42 -184 0
v -43 -185 0
v -44 -185 0
v -44 -184 0
v -43 -184 0
v -44 -185 0
v -45 -185 0
v -45 -184 0
v -44 -184 0
v -45 -185 0
v -46 -185 0
v -46 -184 0
v -45 -184 0
v -46 -185 0
v -47 -185 0
v -47 -184 0
v -46 -184 0
v -47 -185 0
v -48 -185 0
v -48 -184 0
v -47 -184 0
v -48 -185 0
v -49 -185 0
v -49 -184 0
v -48 -184 0
v -49 -185 0
v -50 -185 0
v -50 -184 0
v -49 -184 0
v -50 -185 0
v -51 -185 0
v -51 -184 0
v -50 -184 0
v -51 -185 0
v -52 -185 0
v -52 -184 0
v -51 -184 0
v -52 -185 0
v -53 -185 0
v -53 -184 0
v -52 -184 0
v -56 -185 0
v -57 -185 0
v -57 -184 0
v -56 -184 0
v -57 -185 0
v -58 -185 0
v -58 -184 0
v -57 -184 0
v -58 -185 0
v -59 -185 0
v -59 -184 0
v -58 -184 0
v -59 -185 0
v -60 -185 0
v -60 -184 0
v -59 -184 0
v -60 -185 0
v -61 -185 0
v -61 -184 0
v -60 -184 0
v -61 -185 0
v -62 -185 0
v -62 -184 0
v -61 -184 0
v -62 -185 0
v -63 -185 0
v -63 -184 0
v -62 -184 0
v -63 -185 0
v -64 -185 0
v -64 -184 0
v -63 -184 0
v -64 -185 0
v -65 -185 0
v -65 -184 0
v -64 -184 0
v -65 -185 0
v -66 -185 0
v -66 -184 0
v -65 -184 0
v -66 -185 0
v -67 -185 0
v -67 -184 0
v -66 -184 0
v -67 -185 0
v -68 -185 0
v -68 -184 0
v -67 -184 0
v -68 -185 0
v -69 -185 0
v -69 -184 0
v -68 -184 0
v -70 -185 0
v -71 -185 0
v -71 -184 0
v -70 -184 0
v -75 -185 0
v -76 -185 0
v -76 -184 0
v -75 -184 0
v -56 -186 0
v -57 -186 0
v -57 -185 0
v -56 -185 0
v -70 -186 0
v -71 -186 0
v -71 -185 0
v -70 -185 0
v -75 -186 0
v -76 -186 0
v -76 -185 0
v -75 -185 0
v -56 -187 0
v -57 -187 0
v -57 -186 0
v -56 -186 0
v -70 -187 0
v -71 -187 0
v -71 -186 0
v -70 -186 0
v -75 -187 0
v -76 -187 0
v -76 -186 0
v -75 -186 0
v -56 -188 0
v -57 -188 0
v -57 -187 0
v -56 -187 0
v -70 -188 0
v -71 -188 0
v -71 -187 0
v -70 -187 0
v -75 -188 0
v -76 -188 0
v -76 -187 0
v -75 -187 0
v -56 -189 0
v -57 -189 0
v -57 -188 0
v -56 -188 0
v -70 -189 0
v -71 -189 0
v -71 -188 0
v -70 -188 0
v -75 -189 0
v -76 -189 0
v -76 -188 0
v -75 -188 0
v -56 -190 0
v -57 -190 0
v -57 -189 0
v -56 -189 0
v -70 -190 0
v -71 -190 0
v -71 -189 0
v -70 -189 0
v -75 -190 0
v -76 -190 0
v -76 -189 0
v -75 -189 0
v -75 -191 0
v -76 -191 0
v -76 -190 0
v -75 -190 0
v -75 -192 0
v -76 -192 0
v -76 -191 0
v -75 -191 0
v -54 -193 0
v -55 -193 0
v -55 -192 0
v -54 -192 0
v -75 -193 0
v -76 -193 0
v -76 -192 0
v -75 -192 0

# Texture cooridinates (Count = 4)
vt 1 0
vt 1 1
vt 0 1
vt 0 0

# Normal
vn 0 0 -1

# Mesh description
g map3_mesh_0028

# Faces
f 1/1/1 2/2/1 3/3/1 4/4/1
f 5/3/1 6/4/1 7/1/1 8/2/1
f 9/1/1 10/2/1 11/3/1 12/4/1
f 13/3/1 14/4/1 15/1/1 16/2/1
f 17/1/1 18/2/1 19/3/1 20/4/1
f 21/3/1 22/4/1 23/1/1 24/2/1
f 25/1/1 26/2/1 27/3/1 28/4/1
f 29/3/1 30/4/1 31/1/1 32/2/1
f 33/1/1 34/2/1 35/3/1 36/4/1
f 37/4/1 38/1/1 39/2/1 40/3/1
f 41/4/1 42/1/1 43/2/1 44/3/1
f 45/3/1 46/4/1 47/1/1 48/2/1
f 49/1/1 50/2/1 51/3/1 52/4/1
f 53/3/1 54/4/1 55/1/1 56/2/1
f 57/1/1 58/2/1 59/3/1 60/4/1
f 61/3/1 62/4/1 63/1/1 64/2/1
f 65/1/1 66/2/1 67/3/1 68/4/1
f 69/3/1 70/4/1 71/1/1 72/2/1
f 73/1/1 74/2/1 75/3/1 76/4/1
f 77/3/1 78/4/1 79/1/1 80/2/1
f 81/4/1 82/1/1 83/2/1 84/3/1
f 85/4/1 86/1/1 87/2/1 88/3/1
f 89/4/1 90/1/1 91/2/1 92/3/1
f 93/4/1 94/1/1 95/2/1 96/3/1
f 97/4/1 98/1/1 99/2/1 100/3/1
f 101/4/1 102/1/1 103/2/1 104/3/1
f 105/4/1 106/1/1 107/2/1 108/3/1
f 109/4/1 110/1/1 111/2/1 112/3/1
f 113/4/1 114/1/1 115/2/1 116/3/1
f 117/4/1 118/1/1 119/2/1 120/3/1
f 121/4/1 122/1/1 123/2/1 124/3/1
f 125/4/1 126/1/1 127/2/1 128/3/1
f 129/4/1 130/1/1 131/2/1 132/3/1
f 133/4/1 134/1/1 135/2/1 136/3/1
f 137/4/1 138/1/1 139/2/1 140/3/1
f 141/4/1 142/1/1 143/2/1 144/3/1
f 145/4/1 146/1/1 147/2/1 148/3/1
f 149/4/1 150/1/1 151/2/1 152/3/1
f 153/4/1 154/1/1 155/2/1 156/3/1
f 157/4/1 158/1/1 159/2/1 160/3/1
f 161/4/1 162/1/1 163/2/1 164/3/1
f 165/4/1 166/1/1 167/2/1 168/3/1
f 169/4/1 170/1/1 171/2/1 172/3/1
f 173/4/1 174/1/1 175/2/1 176/3/1
f 177/4/1 178/1/1 179/2/1 180/3/1
f 181/4/1 182/1/1 183/2/1 184/3/1
f 185/4/1 186/1/1 187/2/1 188/3/1
f 189/4/1 190/1/1 191/2/1 192/3/1
f 193/4/1 194/1/1 195/2/1 196/3/1
f 197/4/1 198/1/1 199/2/1 200/3/1
f 201/4/1 202/1/1 203/2/1 204/3/1
f 205/4/1 206/1/1 207/2/1 208/3/1
f 209/4/1 210/1/1 211/2/1 212/3/1
f 213/4/1 214/1/1 215/2/1 216/3/1
f 217/4/1 218/1/1 219/2/1 220/3/1
f 221/4/1 222/1/1 223/2/1 224/3/1
f 225/4/1 226/1/1 227/2/1 228/3/1
f 229/4/1 230/1/1 231/2/1 232/3/1
f 233/4/1 234/1/1 235/2/1 236/3/1
f 237/4/1 238/1/1 239/2/1 240/3/1
f 241/4/1 242/1/1 243/2/1 244/3/1
f 245/1/1 246/2/1 247/3/1 248/4/1
f 249/4/1 250/1/1 251/2/1 252/3/1
f 253/4/1 254/1/1 255/2/1 256/3/1
f 257/4/1 258/1/1 259/2/1 260/3/1
f 261/4/1 262/1/1 263/2/1 264/3/1
f 265/4/1 266/1/1 267/2/1 268/3/1
f 269/4/1 270/1/1 271/2/1 272/3/1
f 273/4/1 274/1/1 275/2/1 276/3/1
f 277/4/1 278/1/1 279/2/1 280/3/1
f 281/4/1 282/1/1 283/2/1 284/3/1
f 285/4/1 286/1/1 287/2/1 288/3/1
f 289/4/1 290/1/1 291/2/1 292/3/1
f 293/4/1 294/1/1 295/2/1 296/3/1
f 297/1/1 298/2/1 299/3/1 300/4/1
f 301/3/1 302/4/1 303/1/1 304/2/1
f 305/1/1 306/2/1 307/3/1 308/4/1
f 309/1/1 310/2/1 311/3/1 312/4/1
f 313/3/1 314/4/1 315/1/1 316/2/1
f 317/1/1 318/2/1 319/3/1 320/4/1
f 321/1/1 322/2/1 323/3/1 324/4/1
f 325/3/1 326/4/1 327/1/1 328/2/1
f 329/1/1 330/2/1 331/3/1 332/4/1
f 333/1/1 334/2/1 335/3/1 336/4/1
f 337/3/1 338/4/1 339/1/1 340/2/1
f 341/1/1 342/2/1 343/3/1 344/4/1
f 345/1/1 346/2/1 347/3/1 348/4/1
f 349/3/1 350/4/1 351/1/1 352/2/1
f 353/1/1 354/2/1 355/3/1 356/4/1
f 357/1/1 358/2/1 359/3/1 360/4/1
f 361/3/1 362/4/1 363/1/1 364/2/1
f 365/3/1 366/4/1 367/1/1 368/2/1
f 369/3/1 370/4/1 371/1/1 372/2/1
f 373/3/1 374/4/1 375/1/1 376/2/1
f 377/3/1 378/4/1 379/1/1 380/2/1

