# Tiled2Unity generated file. Do not modify by hand.
# Wavefront file for 'map3_mesh_0080.obj'

# Vertices (Count = 16)
v -102 -184 0
v -103 -184 0
v -103 -183 0
v -102 -183 0
v -110 -184 0
v -111 -184 0
v -111 -183 0
v -110 -183 0
v -125 -184 0
v -126 -184 0
v -126 -183 0
v -125 -183 0
v -136 -184 0
v -137 -184 0
v -137 -183 0
v -136 -183 0

# Texture cooridinates (Count = 4)
vt 0 0
vt 1 0
vt 1 1
vt 0 1

# Normal
vn 0 0 -1

# Mesh description
g map3_mesh_0080

# Faces
f 1/1/1 2/2/1 3/3/1 4/4/1
f 5/1/1 6/2/1 7/3/1 8/4/1
f 9/1/1 10/2/1 11/3/1 12/4/1
f 13/1/1 14/2/1 15/3/1 16/4/1

