# Tiled2Unity generated file. Do not modify by hand.
# Wavefront file for 'map3_mesh_0071.obj'

# Vertices (Count = 16)
v -102 -180 0
v -103 -180 0
v -103 -179 0
v -102 -179 0
v -110 -180 0
v -111 -180 0
v -111 -179 0
v -110 -179 0
v -125 -180 0
v -126 -180 0
v -126 -179 0
v -125 -179 0
v -136 -180 0
v -137 -180 0
v -137 -179 0
v -136 -179 0

# Texture cooridinates (Count = 4)
vt 0 0
vt 1 0
vt 1 1
vt 0 1

# Normal
vn 0 0 -1

# Mesh description
g map3_mesh_0071

# Faces
f 1/1/1 2/2/1 3/3/1 4/4/1
f 5/1/1 6/2/1 7/3/1 8/4/1
f 9/1/1 10/2/1 11/3/1 12/4/1
f 13/1/1 14/2/1 15/3/1 16/4/1

