# Tiled2Unity generated file. Do not modify by hand.
# Wavefront file for 'map3_mesh_0024.obj'

# Vertices (Count = 80)
v -116 -172 0
v -117 -172 0
v -117 -171 0
v -116 -171 0
v -116 -173 0
v -117 -173 0
v -117 -172 0
v -116 -172 0
v -116 -174 0
v -117 -174 0
v -117 -173 0
v -116 -173 0
v -116 -175 0
v -117 -175 0
v -117 -174 0
v -116 -174 0
v -116 -176 0
v -117 -176 0
v -117 -175 0
v -116 -175 0
v -111 -177 0
v -112 -177 0
v -112 -176 0
v -111 -176 0
v -116 -177 0
v -117 -177 0
v -117 -176 0
v -116 -176 0
v -111 -178 0
v -112 -178 0
v -112 -177 0
v -111 -177 0
v -116 -178 0
v -117 -178 0
v -117 -177 0
v -116 -177 0
v -100 -180 0
v -101 -180 0
v -101 -179 0
v -100 -179 0
v -100 -181 0
v -101 -181 0
v -101 -180 0
v -100 -180 0
v -100 -182 0
v -101 -182 0
v -101 -181 0
v -100 -181 0
v -100 -183 0
v -101 -183 0
v -101 -182 0
v -100 -182 0
v -100 -184 0
v -101 -184 0
v -101 -183 0
v -100 -183 0
v -100 -185 0
v -101 -185 0
v -101 -184 0
v -100 -184 0
v -100 -186 0
v -101 -186 0
v -101 -185 0
v -100 -185 0
v -100 -187 0
v -101 -187 0
v -101 -186 0
v -100 -186 0
v -100 -188 0
v -101 -188 0
v -101 -187 0
v -100 -187 0
v -100 -189 0
v -101 -189 0
v -101 -188 0
v -100 -188 0
v -100 -190 0
v -101 -190 0
v -101 -189 0
v -100 -189 0

# Texture cooridinates (Count = 4)
vt 0 0
vt 1 0
vt 1 1
vt 0 1

# Normal
vn 0 0 -1

# Mesh description
g map3_mesh_0024

# Faces
f 1/1/1 2/2/1 3/3/1 4/4/1
f 5/1/1 6/2/1 7/3/1 8/4/1
f 9/1/1 10/2/1 11/3/1 12/4/1
f 13/1/1 14/2/1 15/3/1 16/4/1
f 17/1/1 18/2/1 19/3/1 20/4/1
f 21/1/1 22/2/1 23/3/1 24/4/1
f 25/1/1 26/2/1 27/3/1 28/4/1
f 29/1/1 30/2/1 31/3/1 32/4/1
f 33/1/1 34/2/1 35/3/1 36/4/1
f 37/1/1 38/2/1 39/3/1 40/4/1
f 41/1/1 42/2/1 43/3/1 44/4/1
f 45/1/1 46/2/1 47/3/1 48/4/1
f 49/1/1 50/2/1 51/3/1 52/4/1
f 53/1/1 54/2/1 55/3/1 56/4/1
f 57/1/1 58/2/1 59/3/1 60/4/1
f 61/1/1 62/2/1 63/3/1 64/4/1
f 65/1/1 66/2/1 67/3/1 68/4/1
f 69/1/1 70/2/1 71/3/1 72/4/1
f 73/1/1 74/2/1 75/3/1 76/4/1
f 77/1/1 78/2/1 79/3/1 80/4/1

