# Tiled2Unity generated file. Do not modify by hand.
# Wavefront file for 'map3_mesh_0074.obj'

# Vertices (Count = 48)
v -102 -181 0
v -103 -181 0
v -103 -180 0
v -102 -180 0
v -110 -181 0
v -111 -181 0
v -111 -180 0
v -110 -180 0
v -125 -181 0
v -126 -181 0
v -126 -180 0
v -125 -180 0
v -136 -181 0
v -137 -181 0
v -137 -180 0
v -136 -180 0
v -102 -182 0
v -103 -182 0
v -103 -181 0
v -102 -181 0
v -110 -182 0
v -111 -182 0
v -111 -181 0
v -110 -181 0
v -125 -182 0
v -126 -182 0
v -126 -181 0
v -125 -181 0
v -136 -182 0
v -137 -182 0
v -137 -181 0
v -136 -181 0
v -102 -183 0
v -103 -183 0
v -103 -182 0
v -102 -182 0
v -110 -183 0
v -111 -183 0
v -111 -182 0
v -110 -182 0
v -125 -183 0
v -126 -183 0
v -126 -182 0
v -125 -182 0
v -136 -183 0
v -137 -183 0
v -137 -182 0
v -136 -182 0

# Texture cooridinates (Count = 4)
vt 0 0
vt 1 0
vt 1 1
vt 0 1

# Normal
vn 0 0 -1

# Mesh description
g map3_mesh_0074

# Faces
f 1/1/1 2/2/1 3/3/1 4/4/1
f 5/1/1 6/2/1 7/3/1 8/4/1
f 9/1/1 10/2/1 11/3/1 12/4/1
f 13/1/1 14/2/1 15/3/1 16/4/1
f 17/1/1 18/2/1 19/3/1 20/4/1
f 21/1/1 22/2/1 23/3/1 24/4/1
f 25/1/1 26/2/1 27/3/1 28/4/1
f 29/1/1 30/2/1 31/3/1 32/4/1
f 33/1/1 34/2/1 35/3/1 36/4/1
f 37/1/1 38/2/1 39/3/1 40/4/1
f 41/1/1 42/2/1 43/3/1 44/4/1
f 45/1/1 46/2/1 47/3/1 48/4/1

