# Tiled2Unity generated file. Do not modify by hand.
# Wavefront file for 'map3_mesh_0086.obj'

# Vertices (Count = 28)
v -56 -185 0
v -57 -185 0
v -57 -184 0
v -56 -184 0
v -70 -185 0
v -71 -185 0
v -71 -184 0
v -70 -184 0
v -56 -186 0
v -57 -186 0
v -57 -185 0
v -56 -185 0
v -56 -187 0
v -57 -187 0
v -57 -186 0
v -56 -186 0
v -56 -188 0
v -57 -188 0
v -57 -187 0
v -56 -187 0
v -56 -189 0
v -57 -189 0
v -57 -188 0
v -56 -188 0
v -56 -190 0
v -57 -190 0
v -57 -189 0
v -56 -189 0

# Texture cooridinates (Count = 4)
vt 1 0
vt 1 1
vt 0 1
vt 0 0

# Normal
vn 0 0 -1

# Mesh description
g map3_mesh_0086

# Faces
f 1/1/1 2/2/1 3/3/1 4/4/1
f 5/4/1 6/1/1 7/2/1 8/3/1
f 9/1/1 10/2/1 11/3/1 12/4/1
f 13/1/1 14/2/1 15/3/1 16/4/1
f 17/1/1 18/2/1 19/3/1 20/4/1
f 21/1/1 22/2/1 23/3/1 24/4/1
f 25/1/1 26/2/1 27/3/1 28/4/1

