# Tiled2Unity generated file. Do not modify by hand.
# Wavefront file for 'map3_mesh_0055.obj'

# Vertices (Count = 28)
v -77 -191 0
v -78 -191 0
v -78 -190 0
v -77 -190 0
v -77 -192 0
v -78 -192 0
v -78 -191 0
v -77 -191 0
v -10 -193 0
v -11 -193 0
v -11 -192 0
v -10 -192 0
v -11 -193 0
v -12 -193 0
v -12 -192 0
v -11 -192 0
v -13 -193 0
v -14 -193 0
v -14 -192 0
v -13 -192 0
v -14 -193 0
v -15 -193 0
v -15 -192 0
v -14 -192 0
v -77 -193 0
v -78 -193 0
v -78 -192 0
v -77 -192 0

# Texture cooridinates (Count = 4)
vt 1 0
vt 1 1
vt 0 1
vt 0 0

# Normal
vn 0 0 -1

# Mesh description
g map3_mesh_0055

# Faces
f 1/1/1 2/2/1 3/3/1 4/4/1
f 5/1/1 6/2/1 7/3/1 8/4/1
f 9/4/1 10/1/1 11/2/1 12/3/1
f 13/4/1 14/1/1 15/2/1 16/3/1
f 17/4/1 18/1/1 19/2/1 20/3/1
f 21/4/1 22/1/1 23/2/1 24/3/1
f 25/1/1 26/2/1 27/3/1 28/4/1

