# Tiled2Unity generated file. Do not modify by hand.
# Wavefront file for 'map3_mesh_0035.obj'

# Vertices (Count = 20)
v -74 -179 0
v -75 -179 0
v -75 -178 0
v -74 -178 0
v -40 -192 0
v -41 -192 0
v -41 -191 0
v -40 -191 0
v -59 -192 0
v -60 -192 0
v -60 -191 0
v -59 -191 0
v -65 -192 0
v -66 -192 0
v -66 -191 0
v -65 -191 0
v -39 -194 0
v -40 -194 0
v -40 -193 0
v -39 -193 0

# Texture cooridinates (Count = 4)
vt 0 0
vt 1 0
vt 1 1
vt 0 1

# Normal
vn 0 0 -1

# Mesh description
g map3_mesh_0035

# Faces
f 1/1/1 2/2/1 3/3/1 4/4/1
f 5/1/1 6/2/1 7/3/1 8/4/1
f 9/1/1 10/2/1 11/3/1 12/4/1
f 13/1/1 14/2/1 15/3/1 16/4/1
f 17/1/1 18/2/1 19/3/1 20/4/1

