# Tiled2Unity generated file. Do not modify by hand.
# Wavefront file for 'map3_mesh_0027.obj'

# Vertices (Count = 508)
v -77 -175 0
v -78 -175 0
v -78 -174 0
v -77 -174 0
v -85 -192 0
v -86 -192 0
v -86 -191 0
v -85 -191 0
v -86 -192 0
v -87 -192 0
v -87 -191 0
v -86 -191 0
v -87 -192 0
v -88 -192 0
v -88 -191 0
v -87 -191 0
v -88 -192 0
v -89 -192 0
v -89 -191 0
v -88 -191 0
v -89 -192 0
v -90 -192 0
v -90 -191 0
v -89 -191 0
v -90 -192 0
v -91 -192 0
v -91 -191 0
v -90 -191 0
v -91 -192 0
v -92 -192 0
v -92 -191 0
v -91 -191 0
v -92 -192 0
v -93 -192 0
v -93 -191 0
v -92 -191 0
v -93 -192 0
v -94 -192 0
v -94 -191 0
v -93 -191 0
v -94 -192 0
v -95 -192 0
v -95 -191 0
v -94 -191 0
v -95 -192 0
v -96 -192 0
v -96 -191 0
v -95 -191 0
v -96 -192 0
v -97 -192 0
v -97 -191 0
v -96 -191 0
v -97 -192 0
v -98 -192 0
v -98 -191 0
v -97 -191 0
v -98 -192 0
v -99 -192 0
v -99 -191 0
v -98 -191 0
v -99 -192 0
v -100 -192 0
v -100 -191 0
v -99 -191 0
v -100 -192 0
v -101 -192 0
v -101 -191 0
v -100 -191 0
v -101 -192 0
v -102 -192 0
v -102 -191 0
v -101 -191 0
v -102 -192 0
v -103 -192 0
v -103 -191 0
v -102 -191 0
v -103 -192 0
v -104 -192 0
v -104 -191 0
v -103 -191 0
v -104 -192 0
v -105 -192 0
v -105 -191 0
v -104 -191 0
v -105 -192 0
v -106 -192 0
v -106 -191 0
v -105 -191 0
v -106 -192 0
v -107 -192 0
v -107 -191 0
v -106 -191 0
v -107 -192 0
v -108 -192 0
v -108 -191 0
v -107 -191 0
v -108 -192 0
v -109 -192 0
v -109 -191 0
v -108 -191 0
v -109 -192 0
v -110 -192 0
v -110 -191 0
v -109 -191 0
v -110 -192 0
v -111 -192 0
v -111 -191 0
v -110 -191 0
v -111 -192 0
v -112 -192 0
v -112 -191 0
v -111 -191 0
v -112 -192 0
v -113 -192 0
v -113 -191 0
v -112 -191 0
v -113 -192 0
v -114 -192 0
v -114 -191 0
v -113 -191 0
v -114 -192 0
v -115 -192 0
v -115 -191 0
v -114 -191 0
v -115 -192 0
v -116 -192 0
v -116 -191 0
v -115 -191 0
v -116 -192 0
v -117 -192 0
v -117 -191 0
v -116 -191 0
v -117 -192 0
v -118 -192 0
v -118 -191 0
v -117 -191 0
v -118 -192 0
v -119 -192 0
v -119 -191 0
v -118 -191 0
v -119 -192 0
v -120 -192 0
v -120 -191 0
v -119 -191 0
v -120 -192 0
v -121 -192 0
v -121 -191 0
v -120 -191 0
v -121 -192 0
v -122 -192 0
v -122 -191 0
v -121 -191 0
v -122 -192 0
v -123 -192 0
v -123 -191 0
v -122 -191 0
v -123 -192 0
v -124 -192 0
v -124 -191 0
v -123 -191 0
v -124 -192 0
v -125 -192 0
v -125 -191 0
v -124 -191 0
v -125 -192 0
v -126 -192 0
v -126 -191 0
v -125 -191 0
v -126 -192 0
v -127 -192 0
v -127 -191 0
v -126 -191 0
v -127 -192 0
v -128 -192 0
v -128 -191 0
v -127 -191 0
v -128 -192 0
v -129 -192 0
v -129 -191 0
v -128 -191 0
v -129 -192 0
v -130 -192 0
v -130 -191 0
v -129 -191 0
v -130 -192 0
v -131 -192 0
v -131 -191 0
v -130 -191 0
v -131 -192 0
v -132 -192 0
v -132 -191 0
v -131 -191 0
v -132 -192 0
v -133 -192 0
v -133 -191 0
v -132 -191 0
v -133 -192 0
v -134 -192 0
v -134 -191 0
v -133 -191 0
v -134 -192 0
v -135 -192 0
v -135 -191 0
v -134 -191 0
v -135 -192 0
v -136 -192 0
v -136 -191 0
v -135 -191 0
v -136 -192 0
v -137 -192 0
v -137 -191 0
v -136 -191 0
v -137 -192 0
v -138 -192 0
v -138 -191 0
v -137 -191 0
v -138 -192 0
v -139 -192 0
v -139 -191 0
v -138 -191 0
v -139 -192 0
v -140 -192 0
v -140 -191 0
v -139 -191 0
v -140 -192 0
v -141 -192 0
v -141 -191 0
v -140 -191 0
v -141 -192 0
v -142 -192 0
v -142 -191 0
v -141 -191 0
v -142 -192 0
v -143 -192 0
v -143 -191 0
v -142 -191 0
v -143 -192 0
v -144 -192 0
v -144 -191 0
v -143 -191 0
v -144 -192 0
v -145 -192 0
v -145 -191 0
v -144 -191 0
v -145 -192 0
v -146 -192 0
v -146 -191 0
v -145 -191 0
v -146 -192 0
v -147 -192 0
v -147 -191 0
v -146 -191 0
v -147 -192 0
v -148 -192 0
v -148 -191 0
v -147 -191 0
v -148 -192 0
v -149 -192 0
v -149 -191 0
v -148 -191 0
v -86 -193 0
v -87 -193 0
v -87 -192 0
v -86 -192 0
v -87 -193 0
v -88 -193 0
v -88 -192 0
v -87 -192 0
v -88 -193 0
v -89 -193 0
v -89 -192 0
v -88 -192 0
v -89 -193 0
v -90 -193 0
v -90 -192 0
v -89 -192 0
v -90 -193 0
v -91 -193 0
v -91 -192 0
v -90 -192 0
v -91 -193 0
v -92 -193 0
v -92 -192 0
v -91 -192 0
v -92 -193 0
v -93 -193 0
v -93 -192 0
v -92 -192 0
v -93 -193 0
v -94 -193 0
v -94 -192 0
v -93 -192 0
v -94 -193 0
v -95 -193 0
v -95 -192 0
v -94 -192 0
v -95 -193 0
v -96 -193 0
v -96 -192 0
v -95 -192 0
v -96 -193 0
v -97 -193 0
v -97 -192 0
v -96 -192 0
v -97 -193 0
v -98 -193 0
v -98 -192 0
v -97 -192 0
v -98 -193 0
v -99 -193 0
v -99 -192 0
v -98 -192 0
v -99 -193 0
v -100 -193 0
v -100 -192 0
v -99 -192 0
v -100 -193 0
v -101 -193 0
v -101 -192 0
v -100 -192 0
v -101 -193 0
v -102 -193 0
v -102 -192 0
v -101 -192 0
v -102 -193 0
v -103 -193 0
v -103 -192 0
v -102 -192 0
v -103 -193 0
v -104 -193 0
v -104 -192 0
v -103 -192 0
v -104 -193 0
v -105 -193 0
v -105 -192 0
v -104 -192 0
v -105 -193 0
v -106 -193 0
v -106 -192 0
v -105 -192 0
v -106 -193 0
v -107 -193 0
v -107 -192 0
v -106 -192 0
v -107 -193 0
v -108 -193 0
v -108 -192 0
v -107 -192 0
v -108 -193 0
v -109 -193 0
v -109 -192 0
v -108 -192 0
v -109 -193 0
v -110 -193 0
v -110 -192 0
v -109 -192 0
v -110 -193 0
v -111 -193 0
v -111 -192 0
v -110 -192 0
v -111 -193 0
v -112 -193 0
v -112 -192 0
v -111 -192 0
v -112 -193 0
v -113 -193 0
v -113 -192 0
v -112 -192 0
v -113 -193 0
v -114 -193 0
v -114 -192 0
v -113 -192 0
v -114 -193 0
v -115 -193 0
v -115 -192 0
v -114 -192 0
v -115 -193 0
v -116 -193 0
v -116 -192 0
v -115 -192 0
v -116 -193 0
v -117 -193 0
v -117 -192 0
v -116 -192 0
v -117 -193 0
v -118 -193 0
v -118 -192 0
v -117 -192 0
v -118 -193 0
v -119 -193 0
v -119 -192 0
v -118 -192 0
v -119 -193 0
v -120 -193 0
v -120 -192 0
v -119 -192 0
v -120 -193 0
v -121 -193 0
v -121 -192 0
v -120 -192 0
v -121 -193 0
v -122 -193 0
v -122 -192 0
v -121 -192 0
v -122 -193 0
v -123 -193 0
v -123 -192 0
v -122 -192 0
v -123 -193 0
v -124 -193 0
v -124 -192 0
v -123 -192 0
v -124 -193 0
v -125 -193 0
v -125 -192 0
v -124 -192 0
v -125 -193 0
v -126 -193 0
v -126 -192 0
v -125 -192 0
v -126 -193 0
v -127 -193 0
v -127 -192 0
v -126 -192 0
v -127 -193 0
v -128 -193 0
v -128 -192 0
v -127 -192 0
v -128 -193 0
v -129 -193 0
v -129 -192 0
v -128 -192 0
v -129 -193 0
v -130 -193 0
v -130 -192 0
v -129 -192 0
v -130 -193 0
v -131 -193 0
v -131 -192 0
v -130 -192 0
v -131 -193 0
v -132 -193 0
v -132 -192 0
v -131 -192 0
v -132 -193 0
v -133 -193 0
v -133 -192 0
v -132 -192 0
v -133 -193 0
v -134 -193 0
v -134 -192 0
v -133 -192 0
v -134 -193 0
v -135 -193 0
v -135 -192 0
v -134 -192 0
v -135 -193 0
v -136 -193 0
v -136 -192 0
v -135 -192 0
v -136 -193 0
v -137 -193 0
v -137 -192 0
v -136 -192 0
v -137 -193 0
v -138 -193 0
v -138 -192 0
v -137 -192 0
v -138 -193 0
v -139 -193 0
v -139 -192 0
v -138 -192 0
v -139 -193 0
v -140 -193 0
v -140 -192 0
v -139 -192 0
v -140 -193 0
v -141 -193 0
v -141 -192 0
v -140 -192 0
v -141 -193 0
v -142 -193 0
v -142 -192 0
v -141 -192 0
v -142 -193 0
v -143 -193 0
v -143 -192 0
v -142 -192 0
v -143 -193 0
v -144 -193 0
v -144 -192 0
v -143 -192 0
v -144 -193 0
v -145 -193 0
v -145 -192 0
v -144 -192 0
v -145 -193 0
v -146 -193 0
v -146 -192 0
v -145 -192 0
v -146 -193 0
v -147 -193 0
v -147 -192 0
v -146 -192 0
v -147 -193 0
v -148 -193 0
v -148 -192 0
v -147 -192 0

# Texture cooridinates (Count = 20)
vt 0.3150985 0.5405983
vt 0.3916849 0.5405983
vt 0.3916849 0.6153846
vt 0.3150985 0.6153846
vt 0.1575492 0.4636752
vt 0.2341357 0.4636752
vt 0.2341357 0.5384616
vt 0.1575492 0.5384616
vt 0.07877462 0.4636752
vt 0.1553611 0.4636752
vt 0.1553611 0.5384616
vt 0.07877462 0.5384616
vt 0.1575492 0.6175214
vt 0.2341357 0.6175214
vt 0.2341357 0.6923077
vt 0.1575492 0.6923077
vt 0.1575492 0.3098291
vt 0.2341357 0.3098291
vt 0.2341357 0.3846154
vt 0.1575492 0.3846154

# Normal
vn 0 0 -1

# Mesh description
g map3_mesh_0027

# Faces
f 1/1/1 2/2/1 3/3/1 4/4/1
f 5/5/1 6/6/1 7/7/1 8/8/1
f 9/9/1 10/10/1 11/11/1 12/12/1
f 13/9/1 14/10/1 15/11/1 16/12/1
f 17/9/1 18/10/1 19/11/1 20/12/1
f 21/9/1 22/10/1 23/11/1 24/12/1
f 25/9/1 26/10/1 27/11/1 28/12/1
f 29/9/1 30/10/1 31/11/1 32/12/1
f 33/9/1 34/10/1 35/11/1 36/12/1
f 37/9/1 38/10/1 39/11/1 40/12/1
f 41/9/1 42/10/1 43/11/1 44/12/1
f 45/9/1 46/10/1 47/11/1 48/12/1
f 49/9/1 50/10/1 51/11/1 52/12/1
f 53/9/1 54/10/1 55/11/1 56/12/1
f 57/9/1 58/10/1 59/11/1 60/12/1
f 61/9/1 62/10/1 63/11/1 64/12/1
f 65/9/1 66/10/1 67/11/1 68/12/1
f 69/9/1 70/10/1 71/11/1 72/12/1
f 73/9/1 74/10/1 75/11/1 76/12/1
f 77/9/1 78/10/1 79/11/1 80/12/1
f 81/9/1 82/10/1 83/11/1 84/12/1
f 85/9/1 86/10/1 87/11/1 88/12/1
f 89/9/1 90/10/1 91/11/1 92/12/1
f 93/9/1 94/10/1 95/11/1 96/12/1
f 97/9/1 98/10/1 99/11/1 100/12/1
f 101/9/1 102/10/1 103/11/1 104/12/1
f 105/9/1 106/10/1 107/11/1 108/12/1
f 109/9/1 110/10/1 111/11/1 112/12/1
f 113/9/1 114/10/1 115/11/1 116/12/1
f 117/9/1 118/10/1 119/11/1 120/12/1
f 121/9/1 122/10/1 123/11/1 124/12/1
f 125/9/1 126/10/1 127/11/1 128/12/1
f 129/9/1 130/10/1 131/11/1 132/12/1
f 133/9/1 134/10/1 135/11/1 136/12/1
f 137/9/1 138/10/1 139/11/1 140/12/1
f 141/9/1 142/10/1 143/11/1 144/12/1
f 145/9/1 146/10/1 147/11/1 148/12/1
f 149/9/1 150/10/1 151/11/1 152/12/1
f 153/9/1 154/10/1 155/11/1 156/12/1
f 157/9/1 158/10/1 159/11/1 160/12/1
f 161/9/1 162/10/1 163/11/1 164/12/1
f 165/9/1 166/10/1 167/11/1 168/12/1
f 169/9/1 170/10/1 171/11/1 172/12/1
f 173/9/1 174/10/1 175/11/1 176/12/1
f 177/9/1 178/10/1 179/11/1 180/12/1
f 181/9/1 182/10/1 183/11/1 184/12/1
f 185/9/1 186/10/1 187/11/1 188/12/1
f 189/9/1 190/10/1 191/11/1 192/12/1
f 193/9/1 194/10/1 195/11/1 196/12/1
f 197/9/1 198/10/1 199/11/1 200/12/1
f 201/9/1 202/10/1 203/11/1 204/12/1
f 205/9/1 206/10/1 207/11/1 208/12/1
f 209/9/1 210/10/1 211/11/1 212/12/1
f 213/9/1 214/10/1 215/11/1 216/12/1
f 217/9/1 218/10/1 219/11/1 220/12/1
f 221/9/1 222/10/1 223/11/1 224/12/1
f 225/9/1 226/10/1 227/11/1 228/12/1
f 229/9/1 230/10/1 231/11/1 232/12/1
f 233/9/1 234/10/1 235/11/1 236/12/1
f 237/9/1 238/10/1 239/11/1 240/12/1
f 241/9/1 242/10/1 243/11/1 244/12/1
f 245/9/1 246/10/1 247/11/1 248/12/1
f 249/9/1 250/10/1 251/11/1 252/12/1
f 253/9/1 254/10/1 255/11/1 256/12/1
f 257/13/1 258/14/1 259/15/1 260/16/1
f 261/17/1 262/18/1 263/19/1 264/20/1
f 265/17/1 266/18/1 267/19/1 268/20/1
f 269/17/1 270/18/1 271/19/1 272/20/1
f 273/17/1 274/18/1 275/19/1 276/20/1
f 277/17/1 278/18/1 279/19/1 280/20/1
f 281/17/1 282/18/1 283/19/1 284/20/1
f 285/17/1 286/18/1 287/19/1 288/20/1
f 289/17/1 290/18/1 291/19/1 292/20/1
f 293/17/1 294/18/1 295/19/1 296/20/1
f 297/17/1 298/18/1 299/19/1 300/20/1
f 301/17/1 302/18/1 303/19/1 304/20/1
f 305/17/1 306/18/1 307/19/1 308/20/1
f 309/17/1 310/18/1 311/19/1 312/20/1
f 313/17/1 314/18/1 315/19/1 316/20/1
f 317/17/1 318/18/1 319/19/1 320/20/1
f 321/17/1 322/18/1 323/19/1 324/20/1
f 325/17/1 326/18/1 327/19/1 328/20/1
f 329/17/1 330/18/1 331/19/1 332/20/1
f 333/17/1 334/18/1 335/19/1 336/20/1
f 337/17/1 338/18/1 339/19/1 340/20/1
f 341/17/1 342/18/1 343/19/1 344/20/1
f 345/17/1 346/18/1 347/19/1 348/20/1
f 349/17/1 350/18/1 351/19/1 352/20/1
f 353/17/1 354/18/1 355/19/1 356/20/1
f 357/17/1 358/18/1 359/19/1 360/20/1
f 361/17/1 362/18/1 363/19/1 364/20/1
f 365/17/1 366/18/1 367/19/1 368/20/1
f 369/17/1 370/18/1 371/19/1 372/20/1
f 373/17/1 374/18/1 375/19/1 376/20/1
f 377/17/1 378/18/1 379/19/1 380/20/1
f 381/17/1 382/18/1 383/19/1 384/20/1
f 385/17/1 386/18/1 387/19/1 388/20/1
f 389/17/1 390/18/1 391/19/1 392/20/1
f 393/17/1 394/18/1 395/19/1 396/20/1
f 397/17/1 398/18/1 399/19/1 400/20/1
f 401/17/1 402/18/1 403/19/1 404/20/1
f 405/17/1 406/18/1 407/19/1 408/20/1
f 409/17/1 410/18/1 411/19/1 412/20/1
f 413/17/1 414/18/1 415/19/1 416/20/1
f 417/17/1 418/18/1 419/19/1 420/20/1
f 421/17/1 422/18/1 423/19/1 424/20/1
f 425/17/1 426/18/1 427/19/1 428/20/1
f 429/17/1 430/18/1 431/19/1 432/20/1
f 433/17/1 434/18/1 435/19/1 436/20/1
f 437/17/1 438/18/1 439/19/1 440/20/1
f 441/17/1 442/18/1 443/19/1 444/20/1
f 445/17/1 446/18/1 447/19/1 448/20/1
f 449/17/1 450/18/1 451/19/1 452/20/1
f 453/17/1 454/18/1 455/19/1 456/20/1
f 457/17/1 458/18/1 459/19/1 460/20/1
f 461/17/1 462/18/1 463/19/1 464/20/1
f 465/17/1 466/18/1 467/19/1 468/20/1
f 469/17/1 470/18/1 471/19/1 472/20/1
f 473/17/1 474/18/1 475/19/1 476/20/1
f 477/17/1 478/18/1 479/19/1 480/20/1
f 481/17/1 482/18/1 483/19/1 484/20/1
f 485/17/1 486/18/1 487/19/1 488/20/1
f 489/17/1 490/18/1 491/19/1 492/20/1
f 493/17/1 494/18/1 495/19/1 496/20/1
f 497/17/1 498/18/1 499/19/1 500/20/1
f 501/17/1 502/18/1 503/19/1 504/20/1
f 505/17/1 506/18/1 507/19/1 508/20/1

