# Tiled2Unity generated file. Do not modify by hand.
# Wavefront file for 'map3_mesh_0022.obj'

# Vertices (Count = 20)
v -51 -189 0
v -52 -189 0
v -52 -188 0
v -51 -188 0
v -53 -190 0
v -54 -190 0
v -54 -189 0
v -53 -189 0
v -54 -190 0
v -55 -190 0
v -55 -189 0
v -54 -189 0
v -54 -191 0
v -55 -191 0
v -55 -190 0
v -54 -190 0
v -54 -192 0
v -55 -192 0
v -55 -191 0
v -54 -191 0

# Texture cooridinates (Count = 4)
vt 0 0
vt 1 0
vt 1 1
vt 0 1

# Normal
vn 0 0 -1

# Mesh description
g map3_mesh_0022

# Faces
f 1/1/1 2/2/1 3/3/1 4/4/1
f 5/1/1 6/2/1 7/3/1 8/4/1
f 9/1/1 10/2/1 11/3/1 12/4/1
f 13/1/1 14/2/1 15/3/1 16/4/1
f 17/1/1 18/2/1 19/3/1 20/4/1

