# Tiled2Unity generated file. Do not modify by hand.
# Wavefront file for 'map3_mesh_0103.obj'

# Vertices (Count = 20)
v -104 -180 0
v -105 -180 0
v -105 -179 0
v -104 -179 0
v -104 -181 0
v -105 -181 0
v -105 -180 0
v -104 -180 0
v -104 -182 0
v -105 -182 0
v -105 -181 0
v -104 -181 0
v -104 -183 0
v -105 -183 0
v -105 -182 0
v -104 -182 0
v -104 -184 0
v -105 -184 0
v -105 -183 0
v -104 -183 0

# Texture cooridinates (Count = 4)
vt 0 0
vt 1 0
vt 1 1
vt 0 1

# Normal
vn 0 0 -1

# Mesh description
g map3_mesh_0103

# Faces
f 1/1/1 2/2/1 3/3/1 4/4/1
f 5/1/1 6/2/1 7/3/1 8/4/1
f 9/1/1 10/2/1 11/3/1 12/4/1
f 13/1/1 14/2/1 15/3/1 16/4/1
f 17/1/1 18/2/1 19/3/1 20/4/1

