# Tiled2Unity generated file. Do not modify by hand.
# Wavefront file for 'tilemap_mesh_0001.obj'

# Vertices (Count = 436)
v -44 -46 0
v -45 -46 0
v -45 -45 0
v -44 -45 0
v -45 -46 0
v -46 -46 0
v -46 -45 0
v -45 -45 0
v -46 -46 0
v -47 -46 0
v -47 -45 0
v -46 -45 0
v -43 -47 0
v -44 -47 0
v -44 -46 0
v -43 -46 0
v -44 -47 0
v -45 -47 0
v -45 -46 0
v -44 -46 0
v -45 -47 0
v -46 -47 0
v -46 -46 0
v -45 -46 0
v -46 -47 0
v -47 -47 0
v -47 -46 0
v -46 -46 0
v -39 -48 0
v -40 -48 0
v -40 -47 0
v -39 -47 0
v -40 -48 0
v -41 -48 0
v -41 -47 0
v -40 -47 0
v -41 -48 0
v -42 -48 0
v -42 -47 0
v -41 -47 0
v -42 -48 0
v -43 -48 0
v -43 -47 0
v -42 -47 0
v -43 -48 0
v -44 -48 0
v -44 -47 0
v -43 -47 0
v -44 -48 0
v -45 -48 0
v -45 -47 0
v -44 -47 0
v -45 -48 0
v -46 -48 0
v -46 -47 0
v -45 -47 0
v -46 -48 0
v -47 -48 0
v -47 -47 0
v -46 -47 0
v -33 -49 0
v -34 -49 0
v -34 -48 0
v -33 -48 0
v -34 -49 0
v -35 -49 0
v -35 -48 0
v -34 -48 0
v -35 -49 0
v -36 -49 0
v -36 -48 0
v -35 -48 0
v -36 -49 0
v -37 -49 0
v -37 -48 0
v -36 -48 0
v -37 -49 0
v -38 -49 0
v -38 -48 0
v -37 -48 0
v -38 -49 0
v -39 -49 0
v -39 -48 0
v -38 -48 0
v -39 -49 0
v -40 -49 0
v -40 -48 0
v -39 -48 0
v -40 -49 0
v -41 -49 0
v -41 -48 0
v -40 -48 0
v -41 -49 0
v -42 -49 0
v -42 -48 0
v -41 -48 0
v -42 -49 0
v -43 -49 0
v -43 -48 0
v -42 -48 0
v -43 -49 0
v -44 -49 0
v -44 -48 0
v -43 -48 0
v -44 -49 0
v -45 -49 0
v -45 -48 0
v -44 -48 0
v -45 -49 0
v -46 -49 0
v -46 -48 0
v -45 -48 0
v -46 -49 0
v -47 -49 0
v -47 -48 0
v -46 -48 0
v -33 -50 0
v -34 -50 0
v -34 -49 0
v -33 -49 0
v -34 -50 0
v -35 -50 0
v -35 -49 0
v -34 -49 0
v -35 -50 0
v -36 -50 0
v -36 -49 0
v -35 -49 0
v -36 -50 0
v -37 -50 0
v -37 -49 0
v -36 -49 0
v -37 -50 0
v -38 -50 0
v -38 -49 0
v -37 -49 0
v -38 -50 0
v -39 -50 0
v -39 -49 0
v -38 -49 0
v -39 -50 0
v -40 -50 0
v -40 -49 0
v -39 -49 0
v -40 -50 0
v -41 -50 0
v -41 -49 0
v -40 -49 0
v -41 -50 0
v -42 -50 0
v -42 -49 0
v -41 -49 0
v -42 -50 0
v -43 -50 0
v -43 -49 0
v -42 -49 0
v -43 -50 0
v -44 -50 0
v -44 -49 0
v -43 -49 0
v -44 -50 0
v -45 -50 0
v -45 -49 0
v -44 -49 0
v -45 -50 0
v -46 -50 0
v -46 -49 0
v -45 -49 0
v -46 -50 0
v -47 -50 0
v -47 -49 0
v -46 -49 0
v -47 -50 0
v -48 -50 0
v -48 -49 0
v -47 -49 0
v -48 -50 0
v -49 -50 0
v -49 -49 0
v -48 -49 0
v -49 -50 0
v -50 -50 0
v -50 -49 0
v -49 -49 0
v -50 -50 0
v -51 -50 0
v -51 -49 0
v -50 -49 0
v -51 -50 0
v -52 -50 0
v -52 -49 0
v -51 -49 0
v -52 -50 0
v -53 -50 0
v -53 -49 0
v -52 -49 0
v -33 -51 0
v -34 -51 0
v -34 -50 0
v -33 -50 0
v -34 -51 0
v -35 -51 0
v -35 -50 0
v -34 -50 0
v -35 -51 0
v -36 -51 0
v -36 -50 0
v -35 -50 0
v -36 -51 0
v -37 -51 0
v -37 -50 0
v -36 -50 0
v -37 -51 0
v -38 -51 0
v -38 -50 0
v -37 -50 0
v -38 -51 0
v -39 -51 0
v -39 -50 0
v -38 -50 0
v -39 -51 0
v -40 -51 0
v -40 -50 0
v -39 -50 0
v -40 -51 0
v -41 -51 0
v -41 -50 0
v -40 -50 0
v -41 -51 0
v -42 -51 0
v -42 -50 0
v -41 -50 0
v -42 -51 0
v -43 -51 0
v -43 -50 0
v -42 -50 0
v -43 -51 0
v -44 -51 0
v -44 -50 0
v -43 -50 0
v -44 -51 0
v -45 -51 0
v -45 -50 0
v -44 -50 0
v -45 -51 0
v -46 -51 0
v -46 -50 0
v -45 -50 0
v -46 -51 0
v -47 -51 0
v -47 -50 0
v -46 -50 0
v -47 -51 0
v -48 -51 0
v -48 -50 0
v -47 -50 0
v -48 -51 0
v -49 -51 0
v -49 -50 0
v -48 -50 0
v -49 -51 0
v -50 -51 0
v -50 -50 0
v -49 -50 0
v -50 -51 0
v -51 -51 0
v -51 -50 0
v -50 -50 0
v -51 -51 0
v -52 -51 0
v -52 -50 0
v -51 -50 0
v -52 -51 0
v -53 -51 0
v -53 -50 0
v -52 -50 0
v -33 -52 0
v -34 -52 0
v -34 -51 0
v -33 -51 0
v -34 -52 0
v -35 -52 0
v -35 -51 0
v -34 -51 0
v -35 -52 0
v -36 -52 0
v -36 -51 0
v -35 -51 0
v -36 -52 0
v -37 -52 0
v -37 -51 0
v -36 -51 0
v -37 -52 0
v -38 -52 0
v -38 -51 0
v -37 -51 0
v -38 -52 0
v -39 -52 0
v -39 -51 0
v -38 -51 0
v -39 -52 0
v -40 -52 0
v -40 -51 0
v -39 -51 0
v -40 -52 0
v -41 -52 0
v -41 -51 0
v -40 -51 0
v -41 -52 0
v -42 -52 0
v -42 -51 0
v -41 -51 0
v -42 -52 0
v -43 -52 0
v -43 -51 0
v -42 -51 0
v -43 -52 0
v -44 -52 0
v -44 -51 0
v -43 -51 0
v -44 -52 0
v -45 -52 0
v -45 -51 0
v -44 -51 0
v -45 -52 0
v -46 -52 0
v -46 -51 0
v -45 -51 0
v -46 -52 0
v -47 -52 0
v -47 -51 0
v -46 -51 0
v -47 -52 0
v -48 -52 0
v -48 -51 0
v -47 -51 0
v -48 -52 0
v -49 -52 0
v -49 -51 0
v -48 -51 0
v -49 -52 0
v -50 -52 0
v -50 -51 0
v -49 -51 0
v -50 -52 0
v -51 -52 0
v -51 -51 0
v -50 -51 0
v -51 -52 0
v -52 -52 0
v -52 -51 0
v -51 -51 0
v -52 -52 0
v -53 -52 0
v -53 -51 0
v -52 -51 0
v -33 -53 0
v -34 -53 0
v -34 -52 0
v -33 -52 0
v -34 -53 0
v -35 -53 0
v -35 -52 0
v -34 -52 0
v -35 -53 0
v -36 -53 0
v -36 -52 0
v -35 -52 0
v -36 -53 0
v -37 -53 0
v -37 -52 0
v -36 -52 0
v -37 -53 0
v -38 -53 0
v -38 -52 0
v -37 -52 0
v -38 -53 0
v -39 -53 0
v -39 -52 0
v -38 -52 0
v -39 -53 0
v -40 -53 0
v -40 -52 0
v -39 -52 0
v -40 -53 0
v -41 -53 0
v -41 -52 0
v -40 -52 0
v -41 -53 0
v -42 -53 0
v -42 -52 0
v -41 -52 0
v -42 -53 0
v -43 -53 0
v -43 -52 0
v -42 -52 0
v -43 -53 0
v -44 -53 0
v -44 -52 0
v -43 -52 0
v -44 -53 0
v -45 -53 0
v -45 -52 0
v -44 -52 0
v -45 -53 0
v -46 -53 0
v -46 -52 0
v -45 -52 0
v -46 -53 0
v -47 -53 0
v -47 -52 0
v -46 -52 0
v -47 -53 0
v -48 -53 0
v -48 -52 0
v -47 -52 0
v -48 -53 0
v -49 -53 0
v -49 -52 0
v -48 -52 0
v -49 -53 0
v -50 -53 0
v -50 -52 0
v -49 -52 0
v -50 -53 0
v -51 -53 0
v -51 -52 0
v -50 -52 0
v -51 -53 0
v -52 -53 0
v -52 -52 0
v -51 -52 0
v -52 -53 0
v -53 -53 0
v -53 -52 0
v -52 -52 0

# Texture cooridinates (Count = 24)
vt 0.6470588 0.375
vt 0.7058824 0.375
vt 0.7058824 0.5
vt 0.6470588 0.5
vt 0.7647059 0.375
vt 0.8235294 0.375
vt 0.8235294 0.5
vt 0.7647059 0.5
vt 0.4117647 0.375
vt 0.4705882 0.375
vt 0.4705882 0.5
vt 0.4117647 0.5
vt 0.5882353 0.25
vt 0.6470588 0.25
vt 0.5882353 0.375
vt 0.7647059 0.25
vt 0.8235294 0.25
vt 0.4117647 0.25
vt 0.4705882 0.25
vt 0.7058824 0.25
vt 0.4117647 0.125
vt 0.4705882 0.125
vt 0.5294118 0.25
vt 0.5294118 0.375

# Normal
vn 0 0 -1

# Mesh description
g tilemap_mesh_0001

# Faces
f 1/1/1 2/2/1 3/3/1 4/4/1
f 5/5/1 6/6/1 7/7/1 8/8/1
f 9/9/1 10/10/1 11/11/1 12/12/1
f 13/1/1 14/2/1 15/3/1 16/4/1
f 17/13/1 18/14/1 19/1/1 20/15/1
f 21/16/1 22/17/1 23/6/1 24/5/1
f 25/18/1 26/19/1 27/10/1 28/9/1
f 29/1/1 30/2/1 31/3/1 32/4/1
f 33/2/1 34/5/1 35/8/1 36/3/1
f 37/2/1 38/5/1 39/8/1 40/3/1
f 41/2/1 42/5/1 43/8/1 44/3/1
f 45/13/1 46/14/1 47/1/1 48/15/1
f 49/20/1 50/16/1 51/5/1 52/2/1
f 53/16/1 54/17/1 55/6/1 56/5/1
f 57/18/1 58/19/1 59/10/1 60/9/1
f 61/2/1 62/5/1 63/8/1 64/3/1
f 65/2/1 66/5/1 67/8/1 68/3/1
f 69/2/1 70/5/1 71/8/1 72/3/1
f 73/2/1 74/5/1 75/8/1 76/3/1
f 77/2/1 78/5/1 79/8/1 80/3/1
f 81/2/1 82/5/1 83/8/1 84/3/1
f 85/13/1 86/14/1 87/1/1 88/15/1
f 89/20/1 90/16/1 91/5/1 92/2/1
f 93/20/1 94/16/1 95/5/1 96/2/1
f 97/20/1 98/16/1 99/5/1 100/2/1
f 101/20/1 102/16/1 103/5/1 104/2/1
f 105/20/1 106/16/1 107/5/1 108/2/1
f 109/16/1 110/17/1 111/6/1 112/5/1
f 113/21/1 114/22/1 115/19/1 116/18/1
f 117/20/1 118/16/1 119/5/1 120/2/1
f 121/20/1 122/16/1 123/5/1 124/2/1
f 125/20/1 126/16/1 127/5/1 128/2/1
f 129/20/1 130/16/1 131/5/1 132/2/1
f 133/20/1 134/16/1 135/5/1 136/2/1
f 137/20/1 138/16/1 139/5/1 140/2/1
f 141/20/1 142/16/1 143/5/1 144/2/1
f 145/20/1 146/16/1 147/5/1 148/2/1
f 149/20/1 150/16/1 151/5/1 152/2/1
f 153/20/1 154/16/1 155/5/1 156/2/1
f 157/20/1 158/16/1 159/5/1 160/2/1
f 161/20/1 162/16/1 163/5/1 164/2/1
f 165/23/1 166/13/1 167/15/1 168/24/1
f 169/2/1 170/5/1 171/8/1 172/3/1
f 173/2/1 174/5/1 175/8/1 176/3/1
f 177/2/1 178/5/1 179/8/1 180/3/1
f 181/2/1 182/5/1 183/8/1 184/3/1
f 185/2/1 186/5/1 187/8/1 188/3/1
f 189/2/1 190/5/1 191/8/1 192/3/1
f 193/2/1 194/5/1 195/8/1 196/3/1
f 197/20/1 198/16/1 199/5/1 200/2/1
f 201/20/1 202/16/1 203/5/1 204/2/1
f 205/20/1 206/16/1 207/5/1 208/2/1
f 209/20/1 210/16/1 211/5/1 212/2/1
f 213/20/1 214/16/1 215/5/1 216/2/1
f 217/20/1 218/16/1 219/5/1 220/2/1
f 221/20/1 222/16/1 223/5/1 224/2/1
f 225/20/1 226/16/1 227/5/1 228/2/1
f 229/20/1 230/16/1 231/5/1 232/2/1
f 233/20/1 234/16/1 235/5/1 236/2/1
f 237/20/1 238/16/1 239/5/1 240/2/1
f 241/20/1 242/16/1 243/5/1 244/2/1
f 245/20/1 246/16/1 247/5/1 248/2/1
f 249/20/1 250/16/1 251/5/1 252/2/1
f 253/20/1 254/16/1 255/5/1 256/2/1
f 257/20/1 258/16/1 259/5/1 260/2/1
f 261/20/1 262/16/1 263/5/1 264/2/1
f 265/20/1 266/16/1 267/5/1 268/2/1
f 269/20/1 270/16/1 271/5/1 272/2/1
f 273/20/1 274/16/1 275/5/1 276/2/1
f 277/20/1 278/16/1 279/5/1 280/2/1
f 281/20/1 282/16/1 283/5/1 284/2/1
f 285/20/1 286/16/1 287/5/1 288/2/1
f 289/20/1 290/16/1 291/5/1 292/2/1
f 293/20/1 294/16/1 295/5/1 296/2/1
f 297/20/1 298/16/1 299/5/1 300/2/1
f 301/20/1 302/16/1 303/5/1 304/2/1
f 305/20/1 306/16/1 307/5/1 308/2/1
f 309/20/1 310/16/1 311/5/1 312/2/1
f 313/20/1 314/16/1 315/5/1 316/2/1
f 317/20/1 318/16/1 319/5/1 320/2/1
f 321/20/1 322/16/1 323/5/1 324/2/1
f 325/20/1 326/16/1 327/5/1 328/2/1
f 329/20/1 330/16/1 331/5/1 332/2/1
f 333/20/1 334/16/1 335/5/1 336/2/1
f 337/20/1 338/16/1 339/5/1 340/2/1
f 341/20/1 342/16/1 343/5/1 344/2/1
f 345/20/1 346/16/1 347/5/1 348/2/1
f 349/20/1 350/16/1 351/5/1 352/2/1
f 353/20/1 354/16/1 355/5/1 356/2/1
f 357/20/1 358/16/1 359/5/1 360/2/1
f 361/20/1 362/16/1 363/5/1 364/2/1
f 365/20/1 366/16/1 367/5/1 368/2/1
f 369/20/1 370/16/1 371/5/1 372/2/1
f 373/20/1 374/16/1 375/5/1 376/2/1
f 377/20/1 378/16/1 379/5/1 380/2/1
f 381/20/1 382/16/1 383/5/1 384/2/1
f 385/20/1 386/16/1 387/5/1 388/2/1
f 389/20/1 390/16/1 391/5/1 392/2/1
f 393/20/1 394/16/1 395/5/1 396/2/1
f 397/20/1 398/16/1 399/5/1 400/2/1
f 401/20/1 402/16/1 403/5/1 404/2/1
f 405/20/1 406/16/1 407/5/1 408/2/1
f 409/20/1 410/16/1 411/5/1 412/2/1
f 413/20/1 414/16/1 415/5/1 416/2/1
f 417/20/1 418/16/1 419/5/1 420/2/1
f 421/20/1 422/16/1 423/5/1 424/2/1
f 425/20/1 426/16/1 427/5/1 428/2/1
f 429/20/1 430/16/1 431/5/1 432/2/1
f 433/20/1 434/16/1 435/5/1 436/2/1

